/* XPM */
static char *_ef3910374ad4a8bf26e403e66e16d13ifUz8SL3mBdEoixp[] = {
/* columns rows colors chars-per-pixel */
"50 50 224 2 ",
"   c #3A3C1E",
".  c #2C2623",
"X  c #2E2A25",
"o  c #2E2A2A",
"O  c #2E252A",
"+  c #332E2B",
"@  c #312A29",
"#  c #343525",
"$  c #393D22",
"%  c #35322E",
"&  c #39342C",
"*  c #3D3B2B",
"=  c #383627",
"-  c #332E32",
";  c #363334",
":  c #3A3533",
">  c #3D3A34",
",  c #36353D",
"<  c #3A373A",
"1  c #3C3A3B",
"2  c #403F2E",
"3  c #403E27",
"4  c #423736",
"5  c #423C34",
"6  c #433D3B",
"7  c #493F3E",
"8  c #3F4D0E",
"9  c #3D5202",
"0  c #3F5409",
"q  c #3D451D",
"w  c #3D4223",
"e  c #3F442A",
"r  c #3E4132",
"t  c #3E413D",
"y  c #404F0E",
"u  c #455C04",
"i  c #485E05",
"p  c #43540B",
"a  c #465A0D",
"s  c #4A5D0C",
"d  c #425504",
"f  c #414E16",
"g  c #424D1B",
"h  c #455314",
"j  c #495615",
"k  c #475A13",
"l  c #4B5B14",
"z  c #45521B",
"x  c #4A561C",
"c  c #4B5B1B",
"v  c #515D1C",
"b  c #476100",
"n  c #4B6403",
"m  c #4D6903",
"M  c #4D620C",
"N  c #4F6908",
"B  c #526A06",
"V  c #52660C",
"C  c #536A0C",
"Z  c #586D0E",
"A  c #4D6112",
"S  c #4F6119",
"D  c #526413",
"F  c #546913",
"G  c #53641C",
"H  c #596A1B",
"J  c #57691F",
"K  c #424524",
"L  c #444C23",
"P  c #42452B",
"I  c #454C2C",
"U  c #4A4D2C",
"Y  c #484F26",
"T  c #465124",
"R  c #4A5422",
"E  c #4D5B22",
"W  c #45532B",
"Q  c #4C542A",
"!  c #4D5C2D",
"~  c #515D24",
"^  c #515B2B",
"/  c #424433",
"(  c #454B34",
")  c #494C34",
"_  c #43433D",
"`  c #49423E",
"'  c #464A3D",
"]  c #4B4A3C",
"[  c #484733",
"{  c #504E3F",
"}  c #4B5333",
"|  c #4E5933",
" . c #4B533B",
".. c #4F5A3B",
"X. c #535B33",
"o. c #525D3A",
"O. c #595C3C",
"+. c #52523C",
"@. c #546124",
"#. c #55642B",
"$. c #586925",
"%. c #546233",
"&. c #5A6633",
"*. c #596934",
"=. c #56653A",
"-. c #59643B",
";. c #5B6A3A",
":. c #353343",
">. c #383643",
",. c #3C3B43",
"<. c #3A3749",
"1. c #3D3E4B",
"2. c #373948",
"3. c #3D3E50",
"4. c #423E43",
"5. c #403E4A",
"6. c #3E4142",
"7. c #3E414D",
"8. c #3E4055",
"9. c #434244",
"0. c #4B4544",
"q. c #454B43",
"w. c #4C4B43",
"e. c #43444B",
"r. c #49454B",
"t. c #46494C",
"y. c #4B4B4C",
"u. c #554C4C",
"i. c #53494A",
"p. c #4B5244",
"a. c #4F5A43",
"s. c #4D534C",
"d. c #4B5549",
"f. c #535A43",
"g. c #56524D",
"h. c #5A534D",
"j. c #535B4D",
"k. c #5C5C4D",
"l. c #555746",
"z. c #434553",
"x. c #464955",
"c. c #4A4B54",
"v. c #454759",
"b. c #464A5A",
"n. c #4A4D5B",
"m. c #4A4756",
"M. c #534B51",
"N. c #584F51",
"B. c #504F5D",
"V. c #4D5255",
"C. c #4D515D",
"Z. c #535452",
"A. c #5C5452",
"S. c #535A53",
"D. c #5E5955",
"F. c #51535C",
"G. c #5F595A",
"H. c #5A5659",
"J. c #605F4B",
"K. c #605C54",
"L. c #635D5A",
"P. c #596445",
"I. c #566249",
"U. c #5D6454",
"Y. c #5D635B",
"T. c #626B4E",
"R. c #637148",
"E. c #66615B",
"W. c #69645D",
"Q. c #62695E",
"!. c #6C685E",
"~. c #686754",
"^. c #717457",
"/. c #4C4F62",
"(. c #4E5361",
"). c #4F5767",
"_. c #525563",
"`. c #585766",
"'. c #555A65",
"]. c #595B66",
"[. c #545669",
"{. c #565B6A",
"}. c #5B5E6A",
"|. c #4F5474",
" X c #555C73",
".X c #5B5D71",
"XX c #555A77",
"oX c #605F6D",
"OX c #5B6164",
"+X c #5E626D",
"@X c #566062",
"#X c #5E6272",
"$X c #5E6579",
"%X c #616665",
"&X c #6B6561",
"*X c #626B65",
"=X c #6D6962",
"-X c #61636E",
";X c #636A6D",
":X c #716B64",
">X c #736E69",
",X c #6B726B",
"<X c #737169",
"1X c #7A7964",
"2X c #656672",
"3X c #636572",
"4X c #656974",
"5X c #696B75",
"6X c #656B7B",
"7X c #6B6D7A",
"8X c #67677F",
"9X c #6D7174",
"0X c #6D727C",
"qX c #677079",
"wX c #72737E",
"eX c #666B81",
"rX c #6C6F82",
"tX c #6D6E8A",
"yX c #6E7282",
"uX c #6E7588",
"iX c #727482",
"pX c #737981",
"aX c #757C8B",
"sX c #7C7D88",
/* pixels */
"4X4X2X[.T 9 h t C.].].].}.].].'._.C.n.b.1.6 V.#X}.+X}.}.C.,.; V.}.7X5X7X5X4X2X3Xn.4 (.6XOX$.i } 3X2X",
"4X}.V.} Q k P >.C.]._.'.'.].'.C.C.C.b.1.; + C.+X].'.'.[.1.X 9._.#X2X2X-X3X2X+X].y.Q V.XXI.N n ..3X-X",
"n.y.c n E z h 1 7./._.(.C.C.(.n.n.z.6.c = * y..X'.U.j.1.[ > V.}.}.-X-X}.#X'.y.9.~ C c s.! j a } '.}.",
"! M D V $.j p l g ) e.z.b.b.n.n.9.8 g g * / g '  .C M v C Q c.}..X+X].F.y.' s c G u s z 9 x M s _ t ",
"l l ~.1X<XL.O.D G N g / L } W R T u 8 % 6 h.f.p z s D A m v c #.c. .K $ g ` D E V.! } ! j R C V @.M ",
"&.<X>X>X:X=X&Xl.D j 0 s N G m b L K z K w.E.&X~.] c R ( X.^ n B Q p 9 s I n.@X9XyXiX#X].Z.c.! G R Z ",
"^.=X=X!.!.E.E.&X} R a g |  .D c ) r d p w.u.K.H.+.m k %X7X;X*.D V D L p.V.+XiX0X4X4X5X4X+X.X=.m i ~ ",
":X!.=X!.&XE.E.L.y.) Q q.'.3X*X+X4X5XP.E I 7 0.6 R v Y.qX+X+X3X! m S n.(.3X7X2X3X2X2X+X}.}..X-.s c K.",
"!.!.&XW.E.E.E.L.M.v i OXwX0X0XwX7X7X8Xf.l : & 6 R a..X+X}.}.{.y.U s.C.+X7X3X-X3X+X-X+XoX}.'.T 9 O.&X",
"&X=XW.E.E.E.L.L.^ j p.4X5X5X4X4X4X4X3XS.h e.`.7 ,.'.].}.].]._.t.: x.`.3X-X-X3X3X+X3X}.}.].l.k a J.&X",
"W.E.E.E.E.L.L.D.+.a s.2X2X5X4X5X5X3X4XV.1 #X#X,.e.]._.[._._.C.e.; x.}.-X-X#X+X+X}.}.}.}.-.b ~ k.L.W.",
"E.E.E.L.L.L.L.D.4.  d.2X4X2X-X2X2X2X}.z.4. X(.t q.(.C.C.(.n.x.1 & x.}.}.}.}.+X}.].].].].#.m @.A.L.L.",
"E.L.L.D.D.K.D.g.6 O n.3X3X3X3X}.+X}.n.q.k d.X.a z 9.z.m.z.z.1.I q z.`.}.].'.}.].].].[.p.8 @.l.h.L.L.",
"L.L.D.D.D.A.D.i.> $ s.#X-X-X3X3X'.n.1.# M k D n M z j ( E e / c g ,.(.].`.].].].'.'.V.x 9 } Z.D.L.D.",
"D.D.D.D.A.A.D.0.> l  ..X}.}.+X_.z.,.+ & E c -.@.^ Z m G N n s j x   4.n.(._.[._.F. .p R E w.g.D.D.D.",
"D.A.A.A.A.A.u.6 2 k c n.[.n.b.| L : r.F.-X4X3X+X].=.G H A s } p...I % 7 w.! E ' c l Q { A ) M.A.A.A.",
"A.A.A.A.A.h.9.P v B M @.}  .c k P c.].4X4X#X#X{.{.{.#.b S I.6XiXyX6X'.c.[ i b R D.*X}.`.%.j r.g.A.A.",
"A.D.A.g.h.i./ p d S &.A n G z 1 t._.+X}.}.}.'.'.'.[.X.B *.iXpXwXwX0XwX3Xj.$.F f.{.}.+X+XH.R w 0.u.A.",
"u.u.u.u.u.4.I k k 5XaX9X*.u e 6 m._.{.{.'.'.[._.).n.! A OX7X7X7X7X7X5X4X/.I.F l.[._.}.+X#Xp.# < 0.u.",
"h.N.u.u.0.> D c ,XwX0XiXpXOX) j  .n.[._._.(.C.C.n.x.Q j ].2X2X4X2X4X4X+X}.a.i w._.].}.].+X].; X > ` ",
"` ` 7 6 3 c k %.rX5X7X7X7XyX%XA M ( m./.(.C.n.n.x.z.} ) '.-X3X-X-X3X3X+X`.n._ 5.n.C.F.].}.].5.O + > ",
"% ; = + R M ' 4X5X4X5X5X5X7X3X..M M j K t.x.z.e.e._ l W [.}.}.}.}.}.].].C.n.o ; c.C.F.].`.].c.; @ % ",
"w j h c c v ! 2X2X4X5X4X4X5X6Xj.C F R.~ R I ,.1 4.I I g p.[.}.].].].]._.(., ; + 5.n.(._.F._.n.1 + % ",
"U.| x s j a | 3X3X2X4X4X2X5X4X'.~ *.eXeXP.p 2 r.c.V.m.] / n.[.[._.`._.C.x.9.tX'.; t.C.C._._.z.+ 9.7X",
"pXiX%X..h u ! ].3X3X3X2X3X2X4X{.Q ..$X.Xq.L F.`.-X5X3Xc.9.1 9.e.m.n.n.x.7 }.rXyXt.1 z.n.C.x.,.- F.0X",
"9X9X9X7XY.@.n j.#X+X+X3X2X3X-X'.)  .XXc.> F.].-X+X}.+X#Xn.; X . . % 6 6 0.#X3X+X}.4.,.e.z.1.T I ].4X",
"4X4X4X+X3X+XA  .'.+X}.}.-X#X-X[. .L , 1 F.].}.].}.].].].`.< . t.F.y.9.5 c..X+X}.{.y./ , >.I M E ].4X",
"2X3X+X+X]..Xo.z _.}.}.}.}.}.}.'.q.# @ t.F.].'.].].'.]._.V.5.1 7X0X6X{.7 c.{.{.[.F. .D P Q N M p.].+X",
"+X+X+X}.].C.e.z s.].}.}.'.}.].'.t.o 9.V._._._._._.C.C.F.n.,.6 ].}.2X4XV.6 z.t.) E z 9.j B F D y._.{.",
"].].].]._.e.7 ] y.'.].`.'.{.'._.9.@ t.n.C.n.C.C./.C.C.C.n.,.1 _.}.}.+X_.> & U p.V.].$XQ.l.~ A q.C.].",
"_._.'._.z.1 4 7 z V.(.F._._.'.F.9.+ r.n.n.n.x.n.n.n.n.b.m.6 I p.'.].}.[.1 r.C.[.3X4X7X7XeXo.j 5.m.C.",
"C.n.B.e.< r.3X_.A o.(.C.C.C.C.C.,.X < e.x.b.b.n.b.n.x.v.y.G i x n.[.[.n.e.C._.].+X+X3X-X4XT.j 9.e.n.",
"b.b.5.< 1 6XaXR.M j Q ^ V.n.n.z.+ 1 9.> ; ,.,.7.3.8.7.t Y G b s ! q.z.6._ (._.].}.}.+X-X-X3X ./ ,.e.",
"z.7.,.% C.yX$X-.m N B b J | ' j / u.A.A.w.: q g I L g D n F U X.v x w + L s.C.[.].].].}.}.+XF.: ,.,.",
",., ; + (.#Xb.r l L @.J G u j s P r.0.u.A.A.i.[ c P.*X;.C ^ G.L.G.G.l.r.U D R p.V.(._.}.}.}._.: , ,.",
"; @ @ + ,.2.; ; y.F.}.-X-XU.S G s I 0.i.i.N.u.y.1 /. X{.Q h.A.g.A.A.A.A.N.X.A n c } d.V.F.'.[.1 % ; ",
"@ ; 1 % @ f > C.'._.].].}.4X%XV. .j P 9.0.i.0.7 > 1 e._ L M.h.N.u.u.u.i.0.0.@.m D ~ A k e.t.r.+ + & ",
"2X4X4XOXg l t.(.C._.`.].].}.+X+X3X`.z * 1 6 > > c._.C.s.R ] i.u.i.i.u.i.0.l M O.Q.#X%XS.q.6 6 ; 1 M.",
"7X4X3XQ.m j r.n.(._._.`.'.].].}.}.#XF.> % & : V.-X3X2X.X@.R r.0.0.0._ [ A ~ l..X#X}.].{.[.9.; % ].iX",
"2X3X#X+Xf.j q.v.n.(.C.(._._.].'._._.].n.1 + e.+X+X}.+X}.V.P 1 6 6 6 g z  .F.].].].].'._._.e.; , 3X4X",
"-X+X}.}.c.8 _ b.n.n.n.C.C._.[.]._.(._._.m.: 1 }.}.}.].].C.1 & : > * ( n.C.].]._.[._.]._.n.9.: t }.+X",
"}.}.}._.y.f P z.b.b.n.C.n././.C.C.(.n.C.(.e.; F.].].'.[.r.> n.> : 4.c.C.C.C.(.(.V.C.C._.n.5.5 ) '.}.",
"].}.]._.m./ z ,.8.x.v.n.n.n.n.n.n.n.n.n.n.x.I  .(.'.[.t.: [.8Xt.: e.n.n.n.n.n.V.C.n.n.n.x.,.6 T C.}.",
"].[.V.z._ 9._ ,.,.7.z.z.b.b.n.n.b.n.n.x.z.,.s h 4.4.9.6 > (.|.p.L 7.x.b.b.n.n.b.n.n.b.n.z.,.> z q.'.",
"z.e.9.6 t..X.X .P , >.>.,.1.e.1.e.1.e.' , > c f # e.C.(.t.L _ c x 1.e.v.v.z.x.x.b.x.x.x.7.r g s / z.",
", 6 6 5 z. X$X;XD h z g = < y g l E c u T j m F p.#XwX].(. .p i L <.,.1.3.z.z.z.z.z.z.1.:._ D N U ; ",
"'.OXn.t.I b.).|.| c l I y.`.I.k.G E D n c W C X.].9X7X5X_.(.| Z z / < , ,.<.6.9.,.,.:.> T Q l Z R + ",
"sXsX0X_.V.h W ! v E r.}.0X9X7X5X+X}.;.Q R s c s.#XwX4X4X}.n.Z.C n z O # z R D c g z L h m F v M h F.",
"wXwXiX7X_.} G N x z.}.0X4X4X;X-X}.].]._.~ b k OX7X4X4X2X-X(.j.D i g 9.y.p.E X.L K A s o.$.j S n l 9X",
"7X0X7X7X{.y.V c 9.F.4X#X-X#X+X+X_.]._.C.f.G #.3X2X-X3X+X3X_.e.# ) S.'._._.+X{.n.5 w s.uXpXt.T x o.9X"
};
