/* XPM */
static char *_07986746eb74a28cc2d3eedd4e2f670E9WKsB9JsiN9uT2j[] = {
/* columns rows colors chars-per-pixel */
"40 40 252 2 ",
"   c #0A0504",
".  c #191306",
"X  c #0D101A",
"o  c #292413",
"O  c #031828",
"+  c #10193B",
"@  c #211D23",
"#  c #032535",
"$  c #122B30",
"%  c #2E3029",
"&  c #201B07",
"*  c #443923",
"=  c #354C32",
"-  c #4D4935",
";  c #695B3E",
":  c #191B42",
">  c #092448",
",  c #153351",
"<  c #283351",
"1  c #223D6F",
"2  c #1A4B57",
"3  c #264A59",
"4  c #334A4F",
"5  c #1B4769",
"6  c #1A4E77",
"7  c #26486B",
"8  c #385667",
"9  c #384977",
"0  c #265976",
"q  c #35587A",
"w  c #2F4E6F",
"e  c #28677A",
"r  c #366A77",
"t  c #575B5A",
"y  c #4C514E",
"u  c #65595A",
"i  c #716856",
"p  c #46596B",
"a  c #52566A",
"s  c #465877",
"d  c #4C4D69",
"f  c #605F7E",
"g  c #456478",
"h  c #546878",
"j  c #586D71",
"k  c #676E7A",
"l  c #7A7A77",
"z  c #6A6F6C",
"x  c #817459",
"c  c #847B6B",
"v  c #837D76",
"b  c #73847B",
"n  c #988978",
"m  c #948970",
"M  c #AC9677",
"N  c #1C578C",
"B  c #3B5997",
"V  c #315188",
"C  c #366687",
"Z  c #276795",
"A  c #3B6B9A",
"S  c #337490",
"D  c #3C78A6",
"F  c #3D73AE",
"G  c #196980",
"H  c #44558B",
"J  c #4A5A90",
"K  c #466A89",
"L  c #576989",
"P  c #49748A",
"I  c #5B7A89",
"U  c #486896",
"Y  c #546897",
"T  c #487899",
"R  c #567A9C",
"E  c #68758C",
"W  c #6C6C96",
"Q  c #657798",
"!  c #777D9B",
"~  c #6E758A",
"^  c #545AA2",
"/  c #576CA7",
"(  c #4678A6",
")  c #587BA7",
"_  c #4E71AC",
"`  c #6B77A4",
"'  c #5374C5",
"]  c #667CC8",
"[  c #847C86",
"{  c #3B8695",
"}  c #3484AA",
"|  c #56858C",
" . c #578697",
".. c #4B8899",
"X. c #79868B",
"o. c #678699",
"O. c #72899A",
"+. c #67919B",
"@. c #68868B",
"#. c #4786AA",
"$. c #5787A9",
"%. c #4696A9",
"&. c #5994A9",
"*. c #4B84B2",
"=. c #5987B7",
"-. c #4999B8",
";. c #5897B7",
":. c #6284AB",
">. c #668AA6",
",. c #768AA9",
"<. c #6994A9",
"1. c #7895A9",
"2. c #678AB6",
"3. c #758EB9",
"4. c #6797B9",
"5. c #7697B8",
"6. c #55A8B7",
"7. c #51ADB5",
"8. c #67A8BA",
"9. c #78A4B9",
"0. c #7AB3BC",
"q. c #66AAB3",
"w. c #59A09C",
"e. c #3CA8CB",
"r. c #568FC4",
"t. c #5395CC",
"y. c #6684C3",
"u. c #689AC6",
"i. c #749DC5",
"p. c #6B9BD1",
"a. c #58A6C7",
"s. c #5AB8CA",
"d. c #5BADD4",
"f. c #53B9D6",
"g. c #68AAC7",
"h. c #77A4C7",
"j. c #68B7C8",
"k. c #78B7C8",
"l. c #6AA6D6",
"z. c #78ABD6",
"x. c #69BBD7",
"c. c #77B9D5",
"v. c #69A9E8",
"b. c #78B9E6",
"n. c #73B0EB",
"m. c #57C8DD",
"M. c #54C0C3",
"N. c #69C6D8",
"B. c #77C6D7",
"V. c #68C6E8",
"C. c #78C8E7",
"Z. c #79D5E8",
"A. c #66D7F8",
"S. c #77D9F6",
"D. c #6CCCEF",
"F. c #78E3FA",
"G. c #5FD6EE",
"H. c #879889",
"J. c #999886",
"K. c #8E8E91",
"L. c #A59A89",
"P. c #A79B9B",
"I. c #A8A595",
"U. c #B6A797",
"Y. c #B6B698",
"T. c #B3A98A",
"R. c #9399AD",
"E. c #99A8A5",
"W. c #83A8BC",
"Q. c #97B7BD",
"!. c #8CAEB7",
"~. c #A6A7A3",
"^. c #B9B9A7",
"/. c #ACB8B8",
"(. c #A2A799",
"). c #CAB796",
"_. c #D1B998",
"`. c #C5AF8D",
"'. c #C6B9A4",
"]. c #C6B8B9",
"[. c #D3BCA8",
"{. c #B4C5AF",
"}. c #D4C897",
"|. c #D5C7A8",
" X c #C6C7B6",
".X c #DAC9B8",
"XX c #D6D3B9",
"oX c #CEC9AD",
"OX c #E7D9B8",
"+X c #E1CDAC",
"@X c #86A7C9",
"#X c #89B7C7",
"$X c #96B7C9",
"%X c #88B8D8",
"&X c #93B8D4",
"*X c #A7B9C8",
"=X c #AFB3C6",
"-X c #87BCED",
";X c #AABBE2",
":X c #809FCE",
">X c #C3B5C2",
",X c #86C7D8",
"<X c #99C5DC",
"1X c #92C7CD",
"2X c #B5CAD8",
"3X c #AFCDD4",
"4X c #84C5E3",
"5X c #8DD1ED",
"6X c #B8CAE9",
"7X c #B7D9EB",
"8X c #ACD0EE",
"9X c #B8E9FB",
"0X c #B1E4EA",
"qX c #C9C6C7",
"wX c #D9D8CA",
"eX c #D7D6D8",
"rX c #D1D2D0",
"tX c #E6D8C9",
"yX c #E6D9D6",
"uX c #F4DBD5",
"iX c #D5E3D3",
"pX c #E7E6DB",
"aX c #F5EADA",
"sX c #EDEBD3",
"dX c #C9D7EA",
"fX c #C1D4ED",
"gX c #D7E5E8",
"hX c #DAF5EE",
"jX c #C8E7FB",
"kX c #D6E8FC",
"lX c #CAF5FC",
"zX c #D4FCFE",
"xX c #DCFDFF",
"cX c #DBF3FC",
"vX c #C8E9E9",
"bX c #E8EBE5",
"nX c #F9E6E2",
"mX c #ECFBE8",
"MX c #F9F7E9",
"NX c #E6ECFB",
"BX c #F6ECF8",
"VX c #E3FEFE",
"CX c #ECFEFE",
"ZX c #E9F7F7",
"AX c #F5FEF3",
"SX c #FDFEF4",
"DX c #F4F5FD",
"FX c #FBF4FF",
"GX c #F3FEFE",
"HX c #FCFDFE",
"JX c #FBF2F5",
"KX c #E5D5E2",
/* pixels */
"uXuXuXy X O # O X + =XDXyXyXbXZX!.# + + < > # o.NXeXnXyXDX2X< > + , >   t pXbXbX",
"MXaXi . $ # O $ < < s 6XHXGXhX3X2 2 < : , 7 7 8 *XNXHXHXdXo., > > + O % . i yXMX",
"M |.M T.j $ 4 O 8 #Xh.h.$X#X5X8.&.8.q H U C &.4.>.*X@X$XW.$.2.) < < @ t U.m |.`.",
"M `.).OXt 8 Q.j 3 #X4X4X#X&.c.N.B.;.7 @X;X$.&.k.9.@XR 3.i.h.i.K k qX- i |._.T._.",
"x M `.[.H.3XGXhX@.9.5X4Xk.<.k.,XB.8.1.kXGX6X9.9.#X@X>.5.h.%X9.o.dXGXwXn |.T.M x ",
". - `..XeXHXHXGXgX1X0X8. . .<.&.5X,XkXGXHXGX1X#X5.>.R :.<.&X&XkXCXGXAXsX'.oX-   ",
"% o n L.>XHXFXDXCX+.8.8.#X+. .&.6.&.cXHXHXGXQ.1.9.5.:.5.<.9.1.gXGXCXHX XJ.L.o & ",
"% - '.U.qXHXHXGXxX#XB.6.k.&.4.k.B.k.CXDXDXGX3X<.9.%X2.z.4.<.5.CXGXGXSXpXL.|.* o ",
"- m ).OX].gXGXCX1X5XS.f.s.%.-.V.F.Z.<XGXCXcX#X#Xz.z.r.r.u.u.@X$XGXJXSX'..X[.m - ",
"Y.^.|.aXz a GXQ.r B.F.m.N.x.S.f.S.-.C 6XkXW. .5Xz.-Xp.l.b.z.h.R =XHXK.c aX+X).).",
"H. XXXyXX.8 h I <.k.x.Z.B...,XC.Z.4XK L ,.O.W.<X%X8Xi.4.z.z.@X,.! ~ [ P..X.X[.T.",
"gXbXu z p g o.5.P P &.,XjXvXzX#X{ ..L L ! s g P >.fXCXcX7X1.L L Q ! K.K.v u wXtX",
"NXGX~.k K $.:.3.q w @XCXHXSXSXhX+.r Q f L h I I gXDXHXHXNX*Xh E ,.` ,.~ j I.SXMX",
"DXNXGXO.5 *.4.) L ,.kXGXJXnXSXHXzX8 s W W s I 3XGXHXJXFXHXNX~ L L 3.O.a X.HXpXbX",
"BXHXE.g T D ;.T :.K 3.kXHXAXZXhX| 0 Y Y Y U C q 6XHXHXFXNXR.L Q Q 1.~ z - m SXnX",
"yX.Xv E.P { C $.) =.=.@X7XvXlXq.S #.) Y U ( ( ( R kXdXdX3XP ) :.Q j K.z n ; |.OX",
"m _.OXwX@.3 W.P R 4X5XC.j.{ M.m.S.x.V ) z.N t.v.v.p.) =.;.a.v.*.h K.l I.OX}._.M ",
"M +X_.tXX.O.xX7XP g.5XS.N.%.s.S.D.-.T jXlXu.F d.n.n.r.u.l.l.t.( *XMXqXn +X}._._.",
"y t  XwX{.CXVXVX7X%X5X;.C 0 e ;.B.0.2XGXZXVX#Xi.u.=.C T ..9.5.2XGXmXHXwX|.}.c . ",
"8 4 ~.~.3XZXGXCXxX9.z.#.K P q  .B.w.CXSXSXSXQ.<.3.2.T R P <.,.kXGXGXGXwXT.Y.% . ",
"9 d P.U.qXAXAXCXzX8.d.} #.>.K $.N.7.VXAXSXSXQ.>.2.=.A ( A <.,.kXCXGXGXeXY.Y.% & ",
"d a ].tX XHXmXVX0Xx.D.e.#...T %.S.N.0XCXAXGX$X4.=.F N Z D u.i.6XGXGXHXrXXXoXi . ",
"R.eX].uXK.H.CX0X..s.A.A.V.a.x.V.A.f.&.lXxXW.$.l.n.v.t.t.l.p.=.Y *XHX>Xc OX}.T.Y.",
"K. XaXpXX.4 Q. .S C.S.D.x.%.B.D.A.D.S >.@Xq u.-Xn.n.=.4.u.u.p./ s R.a [ sXOX).U.",
"{.iXb E.K T K $.T ;.#.c.0X<X9Xg.-.#.R s K 5.u.( :.6XfXdX!.o.2.U / V ^ W K.z rXeX",
"mXmXH.h $.*.=.C q 5 $.jXGXGXVX9XT 5 L Q :.3.A U ;XHXHXHXCXO., B B ] ^ / d l FXFX",
"mXiXGX>.F p.' y./ L jXGXSXSXGXCXjXq L J Y 2.( 8XGXHXnXaXGXcX>.Y U A q s b AXbXbX",
"MXSXqXQ B ' ' / 9 L 7XCXSXSXGXVXW.$.s Q ) A *.=.kXHXSXSXZX2X2.A C P K | z (.mXAX",
"yXSXu d H V B V K P r #XCXhXvX0.S #.U U ( ( D Z 2.kXCXCX3XT A ( R K g k = - iXsX",
"J.'.].KX! 9 Y 5 0 c.j.B.1X| 1X,X5X-.C U ( S } b.=.@X1.W.4.;.v.F C L p X. XXXY.J.",
"^.XX.XnXk p lX0.e s.G.m.s.6.C.x.V.x.6 8X9X0 -.t.l.u.=.$.*.l.n.B 3.NX! [ XX_._.[.",
"y H. XwXE.vXxXxX,X7.G.e.} S } d.V.a.&XcXCX7X&.g.;.=.A A l.z.u.-XGXDXBX]..X[.m - ",
", p eX=XrXCXCXCXxXk.B.G 0 0 0 &.B.k.VXHXFXGX$X&.;.( y.y.) :Xh.lXGXZXHXpX^. Xy   ",
"7 3 R.~./.GXGXGXkX<.j.S q q C &.j.q.VXHXBXGX1Xq.;.*.y.) / 3.&.lXGXSXmXwXl ~.@ @ ",
"@ t ].wXwXGXGXGXVXc.N.} N 6 Z %.Z.j.zXGXGXCX<X8.s.D N 6 U i.;.9XCXAXSXmX X X-   ",
"c I..XtXI.rXGXkX>.g.D.V.t.Z a.x.N.7.k.xXCX7Xk.6.s.-.( $.u.h.a.8.vXHXrXI.XX^.J.i ",
"'..XtXMXz j 2Xo.C c.d.D.5Xr.C.x.Z.7.e @X8X) ;.x.s.j.$.h.h.u.c.S o.dXz l wX X'.Y.",
"^.tXU.^.b 4 p 2 C b.a.b.4X;.,XB.7.j.C U :.( ;.a.8.,X9.#X5.) %XT 9 E a K./.J.XXY.",
"AXZXz $ 8 3 , 7 0 0 C <XxXVXzXQ.2 e K J / y.=.T #XlXCXCXfXQ ) U H 9 L a 4 t bXaX",
"CXGXZXh , 5 5 , 5 5 <XxXVXCXGXCX!.> 7 V V H V 4.zXVXCXNXHX;XH 9 1 H < < a bXbXSX"
};
