/* XPM */
static char *_2b70238bd164286aea256f09ac84843QCW1xPR4hvCvchYF[] = {
/* columns rows colors chars-per-pixel */
"50 50 256 2 ",
"   c #030B16",
".  c #101716",
"X  c #060A25",
"o  c #091839",
"O  c #1A1839",
"+  c #10152A",
"@  c #122736",
"#  c #282828",
"$  c #343335",
"%  c #261C23",
"&  c #453A21",
"*  c #504C39",
"=  c #4F4114",
"-  c #141749",
";  c #18314E",
":  c #272A49",
">  c #273754",
",  c #32364B",
"<  c #193B66",
"1  c #1A386F",
"2  c #253B67",
"3  c #403B5B",
"4  c #344853",
"5  c #164F75",
"6  c #28476B",
"7  c #394A6A",
"8  c #284878",
"9  c #265678",
"0  c #3A5878",
"q  c #34516F",
"w  c #3B6A7C",
"e  c #2D6772",
"r  c #1C6875",
"t  c #4B5051",
"y  c #655B4C",
"u  c #726C55",
"i  c #464966",
"p  c #48596B",
"a  c #495A7A",
"s  c #53566F",
"d  c #665E65",
"f  c #46677C",
"g  c #58677A",
"h  c #546B6F",
"j  c #646C79",
"k  c #6F7472",
"l  c #5D6445",
"z  c #2F4131",
"x  c #83766A",
"c  c #8B7957",
"v  c #39847D",
"b  c #7D8B72",
"n  c #878674",
"m  c #938B72",
"M  c #A69370",
"N  c #B6A674",
"B  c #C7A877",
"V  c #CEB26F",
"C  c #E0C37F",
"Z  c #1B5A85",
"A  c #2B5786",
"S  c #375986",
"D  c #385E94",
"F  c #2D518C",
"G  c #186787",
"H  c #29658A",
"J  c #3B6789",
"K  c #3A6796",
"L  c #347997",
"P  c #2F748F",
"I  c #3869A3",
"U  c #3B76A8",
"Y  c #3079AA",
"T  c #455A86",
"R  c #505D8D",
"E  c #466787",
"W  c #566987",
"Q  c #4B7487",
"!  c #567589",
"~  c #476896",
"^  c #556A97",
"/  c #487599",
"(  c #57779A",
")  c #687687",
"_  c #6A7A98",
"`  c #747B96",
"'  c #70748E",
"]  c #4A78A6",
"[  c #577AA4",
"{  c #4F74AF",
"}  c #6579A6",
"|  c #6D7DAE",
" . c #3B8493",
".. c #348BAC",
"X. c #488498",
"o. c #568798",
"O. c #548992",
"+. c #678699",
"@. c #768598",
"#. c #738F8F",
"$. c #4A87A8",
"%. c #5886A8",
"&. c #5995AC",
"*. c #4987B6",
"=. c #5789B7",
"-. c #5895B7",
";. c #4798B1",
":. c #6689A7",
">. c #7888A6",
",. c #6896A9",
"<. c #7699A9",
"1. c #668BB4",
"2. c #6797B7",
"3. c #769AB7",
"4. c #758AB4",
"5. c #59A4B7",
"6. c #51A4B2",
"7. c #78A2AE",
"8. c #78A6BA",
"9. c #67A7B8",
"0. c #60C4BB",
"q. c #3EA4D3",
"w. c #568AC3",
"e. c #5898C6",
"r. c #589DD5",
"t. c #4B92C7",
"y. c #699BC4",
"u. c #789AC7",
"i. c #6698D1",
"p. c #7297C9",
"a. c #4BA2CA",
"s. c #5AA3C7",
"d. c #59A6D6",
"f. c #55B7CC",
"g. c #68A4C7",
"h. c #78A8C8",
"j. c #67BAC8",
"k. c #78B8C8",
"l. c #67A9D6",
"z. c #76A9D7",
"x. c #68B7D7",
"c. c #78B9D6",
"v. c #59B4E8",
"b. c #69BBE7",
"n. c #78B5E3",
"m. c #6BAFE7",
"M. c #59C5D7",
"N. c #4ECBCF",
"B. c #67C5DA",
"V. c #79C7DA",
"C. c #71CFD1",
"Z. c #56C9ED",
"A. c #67C6E7",
"S. c #76C9E6",
"D. c #68D6EA",
"F. c #77D8FA",
"G. c #6ED1F4",
"H. c #5AE6EA",
"J. c #70E5EF",
"K. c #76E4D7",
"L. c #868885",
"P. c #999586",
"I. c #899695",
"U. c #91938E",
"Y. c #A89B8F",
"T. c #B7AB8A",
"R. c #A8A894",
"E. c #B5A997",
"W. c #B9B597",
"Q. c #AEAC8D",
"!. c #879AA9",
"~. c #8B93B1",
"^. c #9EA9A6",
"/. c #89AABA",
"(. c #8FB2B7",
"). c #ABB3A9",
"_. c #B2B1AC",
"`. c #D7B58A",
"'. c #C8B393",
"]. c #C7BAA6",
"[. c #E1BB8A",
"{. c #A4C4AC",
"}. c #DAC699",
"|. c #D6C28F",
" X c #E6C88F",
".X c #CBC4A5",
"XX c #D9C7A7",
"oX c #DCCBB9",
"OX c #D2D1B5",
"+X c #E5CCA8",
"@X c #E9D7A9",
"#X c #E8D6B7",
"$X c #EBCFB5",
"%X c #F9E2AF",
"&X c #859EC7",
"*X c #88A8C8",
"=X c #98A7C8",
"-X c #87B5C8",
";X c #84AAD2",
":X c #8AB9D8",
">X c #99B7D6",
",X c #97B6CC",
"<X c #ABB7CB",
"1X c #87BCE8",
"2X c #A8BBE3",
"3X c #88C6D9",
"4X c #99C5DB",
"5X c #94D3D4",
"6X c #B6C2CA",
"7X c #B3CAD7",
"8X c #86C7E8",
"9X c #85D8E5",
"0X c #90D5ED",
"qX c #A6C7E5",
"wX c #B9D9EB",
"eX c #B8DBF7",
"rX c #B2CFEB",
"tX c #91E8F9",
"yX c #B6E3F3",
"uX c #B4E6DA",
"iX c #D7D6C9",
"pX c #D7D8D8",
"aX c #CBCED0",
"sX c #EDDBCE",
"dX c #D9E9CA",
"fX c #CFE8DC",
"gX c #E7E8DA",
"hX c #F2E9D2",
"jX c #C6D7E6",
"kX c #DADBE8",
"lX c #CCCEEB",
"zX c #E9DDEE",
"xX c #DBE8EA",
"cX c #CBE8F9",
"vX c #D9EAFA",
"bX c #CAF5FC",
"nX c #DCFDFF",
"mX c #D9F5FB",
"MX c #C8E9E9",
"NX c #E8EBE8",
"BX c #F4EAE9",
"VX c #EAF4EB",
"CX c #FDFDED",
"ZX c #F8F7E9",
"AX c #E7E9FA",
"SX c #F7EBF7",
"DX c #EDF4FD",
"FX c #E3FEFF",
"GX c #EBFEFE",
"HX c #E6F7F7",
"JX c #FDFDF4",
"KX c #F3F5FD",
"LX c #FDF5FD",
"PX c #F4FEFE",
"IX c #FCFDFE",
"UX c #F5F6F3",
/* pixels */
"aXBXhX#X*   ; o - X +   #.MXdXdXdXOXgXVXjX, + O : @ @ @ @ (.SXsXsXBXzXjXPX!.  @ + : o o o > AXNXdXdX",
"BXgXsXy .   o - - : :     #.GXgXgXVXPXjXq @ O O > @ > ; ; 7 <XLXSXBXAXPX>X@ + + + + X o @ X t gXCXZX",
"gXZXM = * $ > - O O : +.o.f <XGXGXPXyX,.r $.S 7 q 2 7 W :.J 1.jXDXxXGX>XJ [ 4.7 : : : X $ y & c hXgX",
"u T.`.|.XXP.  i 3 , p 3.:X:X3.7.W 3.3X5.M.B.K S ^ _ a } h.c.*.2.<.) ( y.z.=.u.R : i i % P.+X|.B ].E.",
"Y.'.B B }.P.$ ~.AXs ; <.k.V.c.3XqX;X8XB.N.M.P 6 >XrX~.^ =.n.l.l.7./.2.*.l.z.u.^ g lX<X# x T.V V `.'.",
"x '.`.`.}.u U.NXIXaXj 7.3X9XtXV.] 2.n.9XM.M.$./.FXPXAX~.3.x.F.8X3.! 1Xn.1X1X[ _ 7XIXIXU.m XXV V N M ",
": $ M `.#XiXgXIXBXIXfX(.tXV.6.X.1.u.$.6.K.9X,XHXPXPXIXlX,Xh.z.1._ f / 2.c.h.4XjXPXNXPXIXOX.X'.M . . ",
"O # y +X].].JXIXJXVXGX(.C.V.6.9.3.%.&.5.C.6.uXIXIXIXIXKX*Xh.y.%.&X_ ;X%.z.:X!.GXHXIXIXUXgXR.#Xu . + ",
"> + l W.l ).NXIXJXUXPX#.7.5.k.8.3.[ &. .C.v 6XIXUXJXBXIX@.8.1.;X4.:.;X=.-.h.7.GXGXIXIXIXiXu '.& # + ",
"@ t u #X.XOXPXHXIXIXPX(.3X0XX.:Xu.:.:Xj.C.C.MXPXIXBXIXIX/.3.h.u.*X:.y.g.g.&.7.GXPXPXDXUXiXQ.+XM # + ",
"t y c |.#XR.pXPXDXPXwX8.tXtXx.-.1.( $.j.J.C.-XGXPXIXAXlX*X3Xl.:X,.%.=.g.r.y.:XrXIXkXIXJXW.@X%XN * $ ",
"Y.E.@X+XsXn j cXPXrXq c.A.A.A.x.2.:Xc.x.J.J.P +.mXPXlXW >X:Xc.h.-X7.g.l.l.z.u.^ lXIXkXL.m @XV C '.E.",
"'.oX+X`.sXY.> ^ 2X( X.g.tXM.D.V.8.h.0XV.D.F.&.S *X2X>.~.h.yX8X:X(.+.h.c.n.1Xu.>.' lX^.d Y.hX X X}.W.",
"x oX+X+XiX@.7 ^ S &X1.5.B.x.9X9X,.<.4X3XS.x.%.~ ^ ( } :.-X8.*XrX(.!.4X:Xy.z.&X~.>.' ` ' L.].+X'.'.Y.",
"PXNXm * h f D { | u.0 9 &.e yXnXFXFXbXo.P / [ } ~ :.E Q w Q ) aXLXIXGXeX3.Q g p ) @.>.>.!.k * n ZXhX",
"mXGXPXk 4 E K w.;X} T 0 ( ,XPXPXHXHXGXbX:.E _ R ^ w Q w e +.kXIXIXLXDXGXwX! g ) j ) >.>._ ) j UXNXgX",
"mXPXPXmX+.e H l.2.3.( 0 qXFXIXJXCXZXHXGXmX! a R W _ f q ! MXIXLXCXJXIXGXnXwXg j ' ` >._ a ) KXUXgXgX",
"vXDXIXxXf e  .$.$.6 1.[ :.vXIXBXCXCXGXnX7X! a a W _ E Q ! +.GXIXCXJXNXGXGX*Xp ) g ` >.| a g pXJXNXNX",
"PXPX_.k h o.$.$.h./ ~ [ / ( jXIXPXPXGX,XJ 6 ~ 4.^ T ^ E E q =XDXIXIXPXbX<.f W @.' ~.) _ ` , $ _.JXBX",
"_.gXE.x ^.@.6 K S u./ %.y.%.4XwXjXrXyXh.$.-./ R ( ^ ~ ( [ %.] qXvX6XbX4X/ ,.+.g j ) @.@.k U.n c sXiX",
"u T.`.+XBXI.7 ( | ~ =.m.G.F.V.3XE [ 8Xx.N.D.$.~ ( >XT ^ g.l.d.e.%.J -.*.e.c.1.>.g j L.I.R.sX}.}.N M ",
"T.@X+X+XsXk i =XPX3.K l.G.G.D.9X:X:X8XD.H.H. .w qXcX~.i -.x.b.d.z.z.l.d.r.-.2.Q ) DXpXk P.%X|. X@X.X",
"l m '.XXsXY._.IXIXGX3.y.G.F.B.6.9 / 5.M.N.N.O.6XFXGXAX~.&.x.b.x.$.K *.t.r.g.;XW vXDXIXiXE.|. XB n k ",
"4 # n oXsXpXIXDXKXIXFX4XS.F.G r 9 A 9 ;.C.K.4XPXmXGXLXLX8.-.l.U ( J *.U r.-.3.GXPXDXPXUXiX#X@XM .   ",
"9 J ) aXI.^.IXPXJXJXPX<.k.c.P L / / J X.9X .kXLXHXPXSXKX<.9.=.&X` W 1.S 1.u.:.GXGXPXPXPXaXn #Xu # + ",
"A 8 p ).I.^.PXVXCXZXPX(.o.9.X.X.%.%.J X.C.X.6XIXPXHXIXIX:.&.1.^ _ a [ D =.1.>.DXPXPXGXPXpXn W.u # + ",
"6 7 L.pXpXpXPXPXVXPXFX4Xx.b.L  .] ] H 6.J.C.rXPXGXvXIXKX2.e.g.U ~ 8 ] U e.i.:XFXIXDXKXIXsXoX%X'.% X ",
"s ' Y.oXiX).).PXPXmX-Xs.A.F.a.x.=.=.$.f.H.D.5.4XGXGXAX=Xy.s.a.e.] K U t.r.w.p.4.AXIXIXaXW.$X[.`.u d ",
"Y.oX$X#XhXL.p 7XFX8.L d.v.F.F.G.h.:X9XM.H.H...-.eXmX=XE g.A.f.A.l.i.d.v.m.r.p.a ` KXpXd m sXB  X+X.X",
"m XX+XoXCXI.; :.u.[ U b.F.G.A.B.o.,.V.f.D.D.;.H %.4.( ~ g.8XS.x.2.1.e.r.d.e.h.E 7 ` @.t L.CX#X}.T.Q.",
").iXW.L.<X>.~ =.] =.] $.s.6.k.uX-X5X0Xh.g.h.%.S E / X.2.&.%.4.=X6X6XrX4Xy./ :.Q ! 0 ^ S ! ,XI.L.iXOX",
"PXPX).t g ~ { { I ~ K A 5 w MXHXnXFXnX/.q 0 R } ~ %.&.5.w 6 ' LXIXJXPXcX2.6 0 0 q ^ / S [ q @ ).IXUX",
"AXIXSXaXW / i.w.=.K ] A S bXPXVXPXHXGXGXqXS ^ D { *.-.$.X.(.kXIXBXIXPXmXFX%.0 Q W ^ S ~ ( i <XIXBXBX",
"DXkXIXIX>.[ *.U I z.A K eXGXKXIXKXIXPXGXnX%.T { I I w.] / wXIXSXLXSXKXGXFXeXE ( 0 0 ^ ^ 0 _ KXSXUXUX",
"vXPXIX!.6 J U w.w.8 K S %.wXVXJXIXDXPXcX8.( ^ S D i.~ [ [ _ vXLXZXZXIXGXeX%.( ( ^ [ D D [ 0 @.PXNXNX",
"FXGXb 4 p 0 8 F D A K H P O.uXGXFXGXnX7.X.X.S ~ ~ ~ } ~ ~ S E AXJXCXxXvX:.~ [ T ^ 0 ~ / ~ q 4 d JXJX",
"m OXW.W.aX+.0 S 8 A H t.b.;.k.5X7./.3X9.f.j./ 1.] D | { =.l.w.;X7X#.rX%.-.=.u.~ } T T a ) ).Q.P._._.",
"b W.XX].BX^.> ^ >X< H d.Z.D.B.j.$.X.C.K.N.C. .9 2.;X8 D t.a.b...o.Q 5.e.*.i.z.~ > =X_ 4 ^.gXN @X].E.",
"Q.OX#X@XhXk t vXGXqXH a.G.Z.D.M.;.S.B.N.H.N.r f nXmX>X/ e.v.q.v.g.&.t.r.b.t.z.T =XIXAXk n #X|.V XX].",
"z u M XXsX_.pXDXDXGX4Xx.Z.Z.....Z G ..N.N.N.8.cXFXPXDX>X-.d.q...L Z Y t.r.m.h.>XIXIXKXNX_.XX}.N * & ",
"; 7 L.iXOXiXJXJXCXIXGX-Xx.F.5 G Z D G ;.D.f.yXPXKXIXLXLX:Xe.a.Y %.p.] w.l.y.*XPXPXIXPXPXNX_..XT..   ",
"< 0 j iXP._.CXZXZXJXmX,.c.;.P 5 A F I ..D...wXPXIXLXSXLX+.g.s.t.[ p.=.*.e.g.<.HXIXIXPXIX6Xd oXy @ + ",
"< 7 d iXR..XJXZXCXZXGX,.x.a.P Z A D -.a.F...rXPXIXBXIXIX<.c.s.*.{ F I I =.&.<.GXNXIXHXPXUXm oXu + X ",
"; t n sXhXiXJXPXJXVXnX3Xb.F.Y H 9 5 5 ;.D.S.rXGXGXDXIXxX-Xc.s.U ] 1 D Y d.g.*XmXPXKXIXIXpXoX$XM # . ",
"k Y.XX$X#XP.^.PXPXMXo.x.v.Z.Z.f.H $.s.tXM.f.$.-XnXGXwX<.j.x.b.l.=.{ t.t.d.l.g.! cXDXIX_.P.XX`.`.m u ",
"W.sX%X#XoXU.4 <XcX+.5 d.G.Z.A.S.c.k.V.B.D.A.../ 3XbX,.( 5.x.m.n.h.3.l.m.v.m.n.J ( jX7Xt P.#X X X#X.X",
"m OX|.XXgX^.> E ( < H S.F.M.6.C.e O.3Xf.D.A.U A J 2.Q / s.l.w.z.!.j ,.g...d.z.=.S ~ :.f #.OX@XN Q.m ",
"dXhXQ.u L.p 6 8 1 A 5 -.L L 5XbXMXbXbX$.L ;.K K / / 1.%.z.y.i.rXHXaXmX4X/ l.=.D ~ D / E g I.l n ZXiX",
"VXPXpXj @ ; S 1 1 8 S < ; <.nXPXPXPXHXjX0 ; 9 S ] / K [ J E =XPXPXVXPXmX/.f J ^ T S 8 T 7 4 4 aXVXUX",
"UXIXPXjXW 2 8 1 1 < 2 6 _ vXIXVXJXVXIXIX<X> 6 8 A D A J a !.xXIXIXUXIXDXmX!.7 6 2 8 < 2 > p 6XIXVXUX"
};
