/* XPM */
static char *_9d56fc24adc4525e21f543519a97b21jlwvDlQefIIII1vb[] = {
/* columns rows colors chars-per-pixel */
"32 32 249 2 ",
"   c #020C0E",
".  c #000C1B",
"X  c #090C19",
"o  c #0C1614",
"O  c #332418",
"+  c #2A311F",
"@  c #091B2D",
"#  c #061435",
"$  c #162534",
"%  c #2D342D",
"&  c #294036",
"*  c #041C42",
"=  c #1B364A",
"-  c #122648",
";  c #3D3741",
":  c #103E72",
">  c #253A6A",
",  c #114654",
"<  c #384D46",
"1  c #38495A",
"2  c #22415E",
"3  c #16446D",
"4  c #1B577B",
"5  c #3D5667",
"6  c #224878",
"7  c #354C78",
"8  c #395877",
"9  c #2E4E6D",
"0  c #366468",
"q  c #357278",
"w  c #2C6778",
"e  c #574B44",
"r  c #455449",
"t  c #49585B",
"y  c #575A5C",
"u  c #54514D",
"i  c #59635A",
"p  c #485A77",
"a  c #4C5767",
"s  c #4A6B67",
"d  c #446579",
"f  c #55657B",
"g  c #417578",
"h  c #57696C",
"j  c #646D69",
"k  c #717776",
"l  c #6B6555",
"z  c #937156",
"x  c #837F64",
"c  c #748477",
"v  c #948565",
"b  c #898B77",
"n  c #928676",
"m  c #878A6B",
"M  c #B29373",
"N  c #A39578",
"B  c #163C84",
"V  c #1A5088",
"C  c #2B5786",
"Z  c #35588B",
"A  c #395D94",
"S  c #31548E",
"D  c #39688A",
"F  c #36748A",
"G  c #2D6793",
"H  c #3A7998",
"J  c #366792",
"K  c #3E68A2",
"L  c #2C78A3",
"P  c #3A7EA9",
"I  c #445589",
"U  c #4D5E94",
"Y  c #486789",
"T  c #526889",
"R  c #43788A",
"E  c #48679A",
"W  c #566B96",
"Q  c #447B94",
"!  c #487599",
"~  c #597798",
"^  c #5A7A86",
"/  c #677C88",
"(  c #727789",
")  c #637996",
"_  c #787D9D",
"`  c #456AA8",
"'  c #4679A4",
"]  c #5B79A4",
"[  c #5775BD",
"{  c #6879AB",
"}  c #378E9F",
"|  c #47859E",
" . c #59869D",
".. c #7C8486",
"X. c #6B8497",
"o. c #72879E",
"O. c #6B9694",
"+. c #70918E",
"@. c #4C86AB",
"#. c #5B8AAC",
"$. c #5C87A8",
"%. c #499BA9",
"&. c #5B91AB",
"*. c #4A84B2",
"=. c #5589B7",
"-. c #4399B3",
";. c #5A95B8",
":. c #6786A7",
">. c #7689A7",
",. c #6696A9",
"<. c #7792A4",
"1. c #668AB6",
"2. c #6595BB",
"3. c #769AB9",
"4. c #708EB0",
"5. c #56A7B7",
"6. c #53A9BC",
"7. c #62A2BA",
"8. c #69A5B9",
"9. c #78A5B9",
"0. c #6AB3B8",
"q. c #70AAAD",
"w. c #5B9CC5",
"e. c #4B96C0",
"r. c #6A9ECC",
"t. c #6699C4",
"y. c #789CC4",
"u. c #769BD0",
"i. c #59A6C6",
"p. c #54B3D0",
"a. c #69A5C8",
"s. c #74A8C8",
"d. c #69BCC8",
"f. c #69A7D4",
"g. c #79A9D6",
"h. c #75B6DA",
"j. c #73BDCD",
"k. c #73A4E5",
"l. c #5BC2D2",
"z. c #77C2CC",
"x. c #68C8D6",
"c. c #77C8D8",
"v. c #76D0DD",
"b. c #6AC0CF",
"n. c #6BC7E3",
"m. c #75CCEA",
"M. c #77D8E7",
"N. c #78D9F1",
"B. c #6DD1E1",
"V. c #969886",
"C. c #8B8F8F",
"Z. c #A79989",
"A. c #97AC9D",
"S. c #A4A38B",
"D. c #ACA897",
"F. c #B8A894",
"G. c #B4AD8D",
"H. c #869CB6",
"J. c #8D96AE",
"K. c #87ABBB",
"L. c #99ABBB",
"P. c #8FB3B4",
"I. c #A7A9A7",
"U. c #B8B7A7",
"Y. c #B8B7B4",
"T. c #A6B4B6",
"R. c #CAA789",
"E. c #C8AC91",
"W. c #D7B898",
"Q. c #D2AD8D",
"!. c #C7BDA3",
"~. c #D3BCA5",
"^. c #C7BDB1",
"/. c #BCC5B7",
"(. c #B8C0A9",
"). c #CCC09A",
"_. c #CCC5A2",
"`. c #C8C4B9",
"'. c #D3CAB6",
"]. c #D9D7B8",
"[. c #D2CEAE",
"{. c #E9C7A8",
"}. c #F4CCB2",
"|. c #E7D5B6",
" X c #84A5C3",
".X c #87A8CA",
"XX c #87B5C8",
"oX c #93B5C9",
"OX c #93ADD4",
"+X c #83B8D7",
"@X c #98B9D7",
"#X c #91ACCE",
"$X c #BBBFDA",
"%X c #84B7E7",
"&X c #96B9E1",
"*X c #B2BFE4",
"=X c #96C4DB",
"-X c #83D2D7",
";X c #8DCDD7",
":X c #A8C9D9",
">X c #BBCADB",
",X c #ACD5DC",
"<X c #BCCDCE",
"1X c #8AD7E8",
"2X c #98D4E4",
"3X c #A7C9E8",
"4X c #AAD8E7",
"5X c #B3DBE7",
"6X c #AFCEF2",
"7X c #BAE6F4",
"8X c #ACE2EC",
"9X c #CECCC4",
"0X c #C6C6C6",
"qX c #D3CAC2",
"wX c #C8D5C1",
"eX c #D7D7CB",
"rX c #D9DAD9",
"tX c #C8C9D6",
"yX c #E8DAC7",
"uX c #E9DED7",
"iX c #F2D9DC",
"pX c #DCE6D5",
"aX c #EFE8D5",
"sX c #C8DDF2",
"dX c #CAD6EF",
"fX c #CBE9FC",
"gX c #C6E3F6",
"hX c #D7E7F9",
"jX c #CDFAFD",
"kX c #DCF4FE",
"lX c #DBFDFF",
"zX c #DAF9F6",
"xX c #D6EAEB",
"cX c #EAE8EB",
"vX c #FBE8E4",
"bX c #FBF8E8",
"nX c #EAECF2",
"mX c #E2EAF7",
"MX c #F6EDFA",
"NX c #E4FEFE",
"BX c #EBFFFF",
"VX c #E8F5FB",
"CX c #F3FDF4",
"ZX c #FCFFF2",
"AX c #FEF4FC",
"SX c #F4FEFF",
"DX c #FDFDFD",
"FX c #F7F4F6",
"GX c #E6F4E9",
/* pixels */
"aXaXk X $ - # @ L.FXiXuXzX0 . $ @ $ 1 tXcXcXnX<X- # * =   i DXvX",
"yX|.e ; @ @ = d ^ T.SXxXO.q 8 1 1 5 f H.mXSX>XX.T > - . % e Z.vX",
"M R.~.n r +., 0.-X0.9.XXd.b.D p X.^ y.y.s.$.#.3.1.7 ( r v W.R.Q.",
"v E.'.n U.zXO.q.-Xc.7.a.M.b.#.fXBXoXy.%Xg.;.s.+X X#XSXU.v W.W.z ",
"o i '.qXDXDXVX:X=Xs.:.$.6.z.5XBXkXfX.Xg.=.! 9.K.L.VXDXZXyXU.j   ",
"& < I.Y.FXFXSX<.XX2.3.$.%.5.7XBXBXNXy.t.s.8.,.<.J.SXDXZX].V.t @ ",
"+ V.'.eXcXBXNXXXc.a.t.w.M.M.=XBXBXgXy.g.h.;.;.3. XsXDXbX[.].n O ",
"D.`.aXk C.NXg j.1Xd.a.7.B.N.@.3XfX<.&X6Xa.;.+Xs.3.H.hXU.N |.W.E.",
"F.`.0XC.1 R ,.8.d.;XK.XX1XM.#.Y X.o.OX.X6X X9.XXy.:.<.k Z.~.W.W.",
"bX`.y a :.#.Q F 8.gXSXBX0.w ~ ) ) p T H.hXSXBX>.] W :.<.c l F.vX",
"CXSX>Xp ` u.E Y kXDXvXAXNXq.f p f p J.DXDXcXDXSX) W ] ~ f A.DXcX",
"CXxX( ) 1.=.2.Y H.SXAXAXxXg 5 o./ f f $XDXDXFXT.T ] 3.>.t j rXDX",
"'.^.C...d w F 7.%.8X5X4X0.| ! Y d d ~ 4.@X6X@X$.t.! T k b N M }.",
"F.'.bXk / 5Xq 0.M.v.&.s.v.x.;.4.@XY 1.%Xr.@.2.a.1.] L.I.N |.}.R.",
"y I.rXY.xXkX:XXX2X7.D | v.b.3.fXNXoX2.g.=.@.&.$. XoXmXZXU.[.U.u ",
"< h Y.`.DXSXBXXX8.F ! C } d.5XBXNXlX2.r.*.' Q ,.>.SXDXbXpX(.i o ",
"1 t Y.`.ZXCXBXq.7.P =.G -.b.,XBXBXlX2.=.' ' D  .:.SXAXFXwX/.j o ",
"j I.rXY.pXNX5Xj.m.f.*.*.n.x.9.BXlX6X=.f.' D 2.&.y.*XMXcX/.'.V.e ",
"G._.bXk / 7XH i.N.m.w.h.x.M.7.3.:X! +X%Xt.;.=.h.r.Z dXC.b aXQ.W.",
").!.C.J.! ' *.i.-.1X4X4X5.%.! 7 T  .#.t.3X6X=X@.=.A 7 f c m E.}.",
"CXnX_ { [ ` K : 9.BXDXDX,XF 7 { 4.:.Y @XSXSXNXK.6 1.A ~ d s rXFX",
"nXSX*XI [ k.` $.kXSXvXDXNXXXU I ] T .XBXDXFXSXBX] E E D 0 oXBXVX",
"bXqXt 9 ] G V G 7.7XSXBX0.H Z W ~ ~ D  XVXSXNX .=.K Z ~ s r `.vX",
"G.!.Y.C.2 3 G w.6.1X9.+Xd.c.D ~ T Y 2.' @X X&.2.*.' W 1 C.S.F.W.",
"F.'.aXC.+.jXF i.d.m.w.i.M.M.w oXgXY t.f.=.=.a.;.t.] hXI.V.].~.E.",
"% V.eX`.GXNXjXz.m.L V L p.d.2XBXNX6Xa.w.=.H H s.@X6XAXAXU.].Z.O ",
"5 f 0XY.ZXCXBXP.8.4 C G -.5.jXNXBXNXr.=.t.1. .,.H.SXAXAX/.A.t . ",
"= / tX9XZXGXNXP.a.H 6 C p.d.5XNXkXfX%Xf.K 8 Q  .H.SXAXFXeX`.i X ",
"m !.yXU.<XNX;X5.m.p.P e.l.x.8.jXNXOXa.h.r.' ;.a.t.OXAXrXS.].W.z ",
"[.].uX..5 8., n.n.m.t.h.x.M.Q Y 3.:.r.r.g.1.a.a.%XC >.( b _.{.Q.",
"'.9Xh p Z V : @.Q 4XVXsXq.F D W W :.$.#XgXhX,X$.=.S E T +.j D.yX",
"ZXSX_ > B B : 3 =XNXDXDXlXw > Z I p 8 sXSXSXSX:XC S 6 2 , s SXDX"
};
