/* XPM */
static char *_d480dd6664a429b9231f8a36e5a11afcZF1OACoBOk6SwG2[] = {
/* columns rows colors chars-per-pixel */
"40 40 169 2 ",
"   c #3A404C",
".  c #3B414D",
"X  c #3C424E",
"o  c #3D434F",
"O  c #3C444F",
"+  c #3D4351",
"@  c #3E4450",
"#  c #3F4551",
"$  c #3E4651",
"%  c #3E4452",
"&  c #3F4553",
"*  c #3F4752",
"=  c #404652",
"-  c #414753",
";  c #404654",
":  c #414755",
">  c #404853",
",  c #414954",
"<  c #424854",
"1  c #434955",
"2  c #424A55",
"3  c #424856",
"4  c #434957",
"5  c #434B56",
"6  c #444A56",
"7  c #454B57",
"8  c #444A58",
"9  c #454B59",
"0  c #454D58",
"q  c #464C58",
"w  c #474D59",
"e  c #464E59",
"r  c #464C5A",
"t  c #474D5B",
"y  c #474F5A",
"u  c #484E5A",
"i  c #494F5B",
"p  c #484E5C",
"a  c #494F5D",
"s  c #48505B",
"d  c #49515C",
"f  c #4A505C",
"g  c #4B515D",
"h  c #4A525D",
"j  c #4A505E",
"k  c #4B515F",
"l  c #4B535E",
"z  c #4C525E",
"x  c #4D535F",
"c  c #4C545F",
"v  c #4C5260",
"b  c #4D5361",
"n  c #4D5560",
"m  c #4E5460",
"M  c #4F5561",
"N  c #4E5661",
"B  c #4E5462",
"V  c #4F5563",
"C  c #4F5762",
"Z  c #505662",
"A  c #515763",
"S  c #505664",
"D  c #515765",
"F  c #505863",
"G  c #515964",
"H  c #525864",
"J  c #535965",
"K  c #525A65",
"L  c #525866",
"P  c #535967",
"I  c #535B66",
"U  c #545A66",
"Y  c #555B67",
"T  c #545C67",
"R  c #545A68",
"E  c #555B69",
"W  c #555D68",
"Q  c #565C68",
"!  c #575D69",
"~  c #565E69",
"^  c #565C6A",
"/  c #575D6B",
"(  c #575F6A",
")  c #585E6A",
"_  c #595F6B",
"`  c #585E6C",
"'  c #595F6D",
"]  c #58606B",
"[  c #59616C",
"{  c #5A606C",
"}  c #5B616D",
"|  c #5A626D",
" . c #5A606E",
".. c #5B616F",
"X. c #5B636E",
"o. c #5C626E",
"O. c #5D636F",
"+. c #5C646F",
"@. c #5C6270",
"#. c #5D6371",
"$. c #5D6570",
"%. c #5E6470",
"&. c #5F6571",
"*. c #5E6671",
"=. c #5E6472",
"-. c #5F6573",
";. c #5F6772",
":. c #606672",
">. c #616773",
",. c #606674",
"<. c #616775",
"1. c #606873",
"2. c #616974",
"3. c #626874",
"4. c #636975",
"5. c #626876",
"6. c #636977",
"7. c #636B76",
"8. c #646A76",
"9. c #656B77",
"0. c #646C77",
"q. c #646A78",
"w. c #656B79",
"e. c #666C78",
"r. c #676D79",
"t. c #666C7A",
"y. c #676D7B",
"u. c #686E7A",
"i. c #696F7B",
"p. c #686E7C",
"a. c #696F7D",
"s. c #68707B",
"d. c #6A707C",
"f. c #6B717D",
"g. c #6A727D",
"h. c #6A707E",
"j. c #6B717F",
"k. c #6C727E",
"l. c #6D737F",
"z. c #6C747F",
"x. c #6C7280",
"c. c #6D7381",
"v. c #6D7580",
"b. c #6E7480",
"n. c #6F7581",
"m. c #6E7482",
"M. c #6F7583",
"N. c #707682",
"B. c #717783",
"V. c #707684",
"C. c #717785",
"Z. c #707883",
"A. c #727884",
"S. c #737985",
"D. c #727A85",
"F. c #727886",
"G. c #737987",
"H. c #747A86",
"J. c #757B87",
"K. c #747A88",
"L. c #767C8A",
"P. c #777D8B",
"I. c #797F8B",
"U. c #787E8C",
"Y. c #797F8D",
"T. c #7A808E",
"R. c #7E8492",
"E. c #838997",
"W. c #858B97",
/* pixels */
"I.%.:.%.8.4.e.8.8.8.e.8.:.%.:.8.4.%.} f.f.8.O.u.8.8.:.O.:.e.f.f.%.O.%.:.:.:.4.e.",
"n.J J M J M M i J O.:._ Z z z g z J J %.:.%.z w Z Z M z Z _ O.O.z z z M z z M J ",
"J.J g < w w z z z O.4.! g g g i < i i ! O.:.M i 7 w w w M } :.4.J z i 7 7 w z U ",
"k.U } %.e.8.:.} J :.e.%.! } 4.8.f.%.J %.%.} Z _ u.e.4.} _ } O._ J _ :.u.e.:._ J ",
"k.z i < w 7 i w J ! ! Z i 7 w i 7 < 7 } O.! i M < w i i M _ :.:.i i w 7 7 w i i ",
"B._ %.:.u.e.e.4._ } %.4.:.%.%.4.4.8.O.%.} :.} :.e.u.8.O._ } } _ O.%.:.:.4.4.:.O.",
"k.Z M w w < 7 7 ! } } J z i w 7 X i M } O.} g i = w i i z ! O.%.z g i 7 7 i g g ",
"e.J O.:.e.4.8.4.M _ } J J O.8.8.e.O.Z } _ ! J :.8.e.4.} ! ! _ ! J _ %.4.4.:._ M ",
"n.U ! J ! ! U M } _ _ } ! M M ! Z M J %.! } ! Z U ! U M ! O.! %.U J Z Z J U U J ",
"8.U :.O.O._ :.:.O.! J _ :.:.O._ %.} _ %.U O.%.O.O.%.%._ O.O.Z U O.O.%.%.O.O.O.O.",
"W.k.n.u.k.k.S.S.B.S.S.S.S.S.B.k.k.f.f.J.n.J.S.J.n.n.n.u.n.J.n.J.k.n.B.B.n.k.k.n.",
"n.Z M g J J U M z _ %.! M M Z Z g g g _ ! } J J J M M i z ! ! %.z M Z J Z M M z ",
"S.J z = # X < 7 J O.%.J w w 7 # w i z %.:.} w = < = i i z ! } %.Z g < # = 7 z Z ",
"n.! %.e.B.f.e.:.z %.e.%._ %.e.u.u.:.J O.:.4.O.4.e.:.4.O.! %.%.:.U } 4.k.n.u.O.J ",
"J.z =   = < w w g ! } M = = w i # 7 w _ O.U = < w # w 7 7 J } %.w 7 = = = < 7 w ",
"u.! 4.u.f.4.8.e.O.%.} _ %.e.e.4.e.e.} :.:.%._ e.e.:.u.8.} %.O.! %.4.e.u.e.4.:.%.",
"V.P g w < 8 8 8 J } %.! g 8 8 w ; w a } %.! 8 g 8 ; 8 a a J @.} M < # 7 w < i ! ",
"q.D P } @.<.%.@.J E E E ! } <.4.4.@.M E ! } E @.%.@.%.} ! ! ` E Z O.8.8.4.4.} z ",
"n.! ! } ! ! J D ` ` } ` E D J E J D J @.! ` D v J ! E J E ` @.<.U U J M M J U U ",
"e.D D E E ` ` } E J E ` } ` ` ` ` ` ` @.v ! @.%.` %.` J ! E D E } _ } :.:.} _ O.",
"E.n.n.S.n.V.n.n.R.K.c.c.V.S.n.c.n.c.V.P.f.V.V.c.p.M.n.M.Y.Y.V.n.B.B.n.k.f.k.n.k.",
"f.P D J J ! ! ` ` %.<.} E J ! } ! M g ` ` %.! D E ! J J } %.%.%.J Z J _ _ J M J ",
"V.J g w ; ; # + v @.4.! 8 + # & # < w %.q.-.w & ; # # ; w J <.q.J <   = = # w ! ",
"n.` } <.q.p.q.<.! @.@.! @.y.p.<.<.<.E @.@.} E q.6.4.e.q.} } %.} ! :.e.8.4.8.%.J ",
"c.v 8 8 w g 8 ; 8 %.4.J # w a w a ; ; } %.! < ; w w a ; 8 P ` <.i 7 7 i w 7 w g ",
"x.! } <.<.q.4.4.} @.` %.@.q.-.@.%.%.` @.` <.@.<.<.4.p.<.%.<.} ` ! } :.e.8.:.} } ",
"M.E M g 8 w a v E } ` ` a w < v < v J %.} ` g w w w g 8 a ! } <.U Z g < < i J ! ",
"e.M M ` @.4.%.} v E E ! J %.-.-.<.E g ` / ` E %.%.@.%.` ! } ! ` i J O.:.:.O.U g ",
"n.! ! @.@.@.J M ! @.! ! D ` E J ! D M %.@.` M J ! E ` ! ! @.` } ! _ _ U ! _ } ! ",
"q.D J E M J ! } E E J } E ! E @.E } E E v ! ! ` } E E D D J M J U U U U U ! ! U ",
"Y.f.V.P.V.M.c.n.Y.n.4.n.S.T.n.f.c.S.n.n.p.V.n.n.p.p.S.P.Y.Y.n.c.B.n.k.n.B.B.n.n.",
"P.@./ ` ! @.@.@.} p.e.<.E <.%.@.} ! E q.q.4.E E %.` @.} %.4.<.q._ U ! } O._ ! _ ",
"S.M w > < # < < J ] } J w # # < # < w } %.} y # O # # # g ! +.} g w < < < < s M ",
"S.T ! ! %.} +.} g %.0.} T +.4.%.4.} J } +.4.X.+.+.1.%.] ! } %.%.! ! } %.+.] ! ! ",
"s.c M M I M c g c } %.M w g g w w g c %.X.] w > w g M g c J } %.g l M J J M g s ",
"Z.T ! T } ! } ! F ! } +.} ] X.4.%.! M ] ! +.! } %.+.! T ! } ] T ! T T ! ! ! ! ] ",
"z.J J M J J T J } } +.} J c c F g M F ;.%.} M c M g g M ! } %.+.J F M M F F J J ",
"f.J ! J ! J J c M ! } J M T ! J T J C ] T ! F J J T ! T J J ! ] J F J ! ! J M c ",
"4.M ! ! +.} %.] J ] } T J ] } ! } ] J } ! ] T } ] } } } ! T ! } ! ! ! } +.] J M ",
"n.! } ! ] ! ! J } ] } } ] J T } ! ! ! %.} } ! ] } ! T ! } } } ] } ! T ! ] ] ] ] "
};
