/* XPM */
static char *_8ac6240b975435b968afaf29537fdd8FhEBIfBwfm4TibJh[] = {
/* columns rows colors chars-per-pixel */
"64 64 133 2 ",
"   c #090803",
".  c #110E0B",
"X  c #14110F",
"o  c #161511",
"O  c #191714",
"+  c #1C1916",
"@  c #1F1D19",
"#  c #221E1B",
"$  c #24211E",
"%  c #29231E",
"&  c #252422",
"*  c #2A2623",
"=  c #262825",
"-  c #2D2A26",
";  c #2E2C2A",
":  c #302A26",
">  c #312E2B",
",  c #34312E",
"<  c #3A332E",
"1  c #363432",
"2  c #393632",
"3  c #3C3A36",
"4  c #3E3C39",
"5  c #413A35",
"6  c #423E3A",
"7  c #44413E",
"8  c #49423E",
"9  c #464442",
"0  c #4A4642",
"q  c #4D4946",
"w  c #4B4748",
"e  c #4E4C4A",
"r  c #514A46",
"t  c #524E4B",
"y  c #54514E",
"u  c #59534E",
"i  c #534F50",
"p  c #575654",
"a  c #555451",
"s  c #595450",
"d  c #585550",
"f  c #585451",
"g  c #5A5551",
"h  c #595651",
"j  c #595552",
"k  c #585453",
"l  c #5A5552",
"z  c #585753",
"x  c #5B5652",
"c  c #5A5752",
"v  c #5A5653",
"b  c #595554",
"n  c #585755",
"m  c #5B5754",
"M  c #5A5655",
"N  c #5B5756",
"B  c #595552",
"V  c #5B5853",
"C  c #595854",
"Z  c #5A5955",
"A  c #595856",
"S  c #5A5957",
"D  c #5B5A56",
"F  c #5C5954",
"G  c #5C5855",
"H  c #5D5855",
"J  c #5D5A55",
"K  c #5C5857",
"L  c #5C5B57",
"P  c #5E5B56",
"I  c #5F5A57",
"U  c #5D5C57",
"Y  c #5F5C57",
"T  c #5C5956",
"R  c #5B5A58",
"E  c #5D5958",
"W  c #5C5B59",
"Q  c #5E5A59",
"!  c #5F5B5A",
"~  c #5D5C58",
"^  c #5E5D59",
"/  c #5F5E59",
"(  c #5F5E5A",
")  c #5D5B59",
"_  c #605D58",
"`  c #605C59",
"'  c #615E59",
"]  c #615D5A",
"[  c #605F5A",
"{  c #605F5B",
"}  c #625F5A",
"|  c #645F5B",
" . c #615D5C",
".. c #635F5C",
"X. c #635F5E",
"o. c #615D5B",
"O. c #63605B",
"+. c #62615C",
"@. c #62615D",
"#. c #63625E",
"$. c #64605D",
"%. c #65605D",
"&. c #65625D",
"*. c #66615E",
"=. c #64635E",
"-. c #64635F",
";. c #67645F",
":. c #64615E",
">. c #666261",
",. c #676362",
"<. c #656460",
"1. c #666561",
"2. c #676661",
"3. c #666461",
"4. c #686560",
"5. c #696661",
"6. c #686463",
"7. c #6A6562",
"8. c #686763",
"9. c #6A6762",
"0. c #696662",
"q. c #6B6863",
"w. c #696864",
"e. c #6B6A65",
"r. c #6C6964",
"t. c #6D6A65",
"y. c #6D6C67",
"u. c #6F6C67",
"i. c #6B6965",
"p. c #6F6E69",
"a. c #6F6B68",
"s. c #716E69",
"d. c #716D6C",
/* pixels */
"o , - & ; ; > > ; - ; - & , . O & & & * - - - - * $ + @   $ 2 - ; ; ; ; ; ; ; ; 1 ; , o ; 3 ; ; & , 2 , ; 2 - X . # $ * * * - # ",
"q 8.1.-.w.-.@.{ ~ D ~ ~ D 1.7 0 1.-.~ { O.1.w.y.p.w.{ ~ 3 0 Y y z z p p p z z z a t D 2 9 a e y D y y y D 1.t - t { {  .-.-.8.L ",
"3 ~ L D L y y t y q q e e z , 2 y y y y V { ;.8.8.;.{ { < 2 t e z z m m D D D D D z D 2 0 a e e y y y f z D q - q z t y y y L t ",
"7 @.{ D ~ z z z D y y y y L 3 7 V L ~ -.8.q.q.8.;.;.;.y.7 7 z L e y a z p p m p R e y ; 0 Q f e e y z y t y 0 ; t m t t t y z r ",
"3 D D z L z z y z e y y q y 3 q t.t.t.q.8.-._ L { { O.t.7 6 t t a f p m D m z z z e f > 9 D z p D y t y z L q > q y q q q q t 7 ",
", y z z ~ z y e z y z z e z 4 y s.t.;.{ Y L L L { O.O.8.7 7 y q e e e t e e q 0 e e p * - 3 3 7 7 4 6 4 4 7 2 # q y q e t t t 7 ",
", e q 0 y y t q z e y z y z 3 e L z y y y z z L z _ Y { 2 7 z y e t f z m z f y p m Q ; > 6 6 6 4 7 0 0 6 3 , # q t 0 0 q q t 7 ",
"3 e 7 3 q e y y y q e y y z 2 0 y y y y z z z z y _ L z > 3 z y t f Q  .>.8.6.6. .R Q 2 e >. .m @.z z ~ @.@.q - q t 0 0 q q t 7 ",
", e 0 7 e e e e D q 0 e y y , q L z y y y u u u u | y 8 - 8 z 0 q m -.{ z z m H { y y > t t y f e z y y e y e - 9 t 0 0 0 0 q 6 ",
"2 y e 0 q q e y 0 0 e e y z 2 q x u y t y u u y t t 6 6 : 6 y q t y m z f z z y f y z , y t y y z ~ ~ ~ D z t > 0 y q q q q t 7 ",
"2 y y q q 0 e y y z y q q z 2 7 z y t t y u u y y 0 2 0 2 6 y y y y t r t y t q 0 t y > q t t q z ~ D L D z t > 0 t 0 q r q t 8 ",
"2 z z y y q q e e e q q y L 3 0 z y y y u z s u 0 6 2 0 2 6 y z z y r q t t t q e y t > 0 z y t z z t y z D y , 0 y e t t t s q ",
"4 z e e y q 0 0 e e z D z y ; 0 u u t t u u u u 6 0 0 u 5 0 x x t t q r r r t t u y 0 - 7 z y y e e 0 e y z t > e z t y y t u 0 ",
"4 y q q y e e y 7 7 0 0 2 ; + 0 t r r r t t r r 0 u u s 2 5 r 0 t t t y y t t y t r 6 - 6 t 0 t q q 0 y z y q - t L f f y t y 0 ",
"@ 2 , , 2 - - - , ; ; ; - 2 & q r r q q r r q 0 8 r 0 q : : 5 2 , , , 2 , - % % * - * + * - # - - ; ; , ; ; > + > 2 , 1 2 , 2 * ",
"0 @.@.~ z 4 , , @.~ D z { w.4 7 t r q q r r 0 0 r r q z 5 7 u z L y y z t 7 2 , q z L V L z 0 y t z y y q e Q f q z y z L L { y ",
"4 R p p 1.1.2 4 y t e t e p 3 4 t y y t r t t q y 0 0 z 7 6 0 Q 6 0 9 y 9 0 - { t.@.Q D X.1.>.@.R p a z z z y e y t y u y u u q ",
"2 z t e ~ R ; 3 e y e y e m 7 9 y t t t e 0 q t y z y y 6 0 0 0 e q 7 e 7 7 & z D p a y z p D D a i e e e e e e e q q q 0 r r 8 ",
"2 a t e z p ; 3 p D a a e y 3 4 z t t y t q q y t z f y 6 q 0 6 t e 0 y e q - z z z m z y y z D a a e e e e e e e 0 q 0 0 q q 7 ",
"3 z a e y z 1 4 e e e e t p 4 7 z y t t y t t y z f y L 0 0 q y 7 7 0 y t 0 * y z Q { { L m z L D p a a e e e e t q q 0 0 q q 7 ",
"2 e t q q y 1 2 p p a R D ( 6 4 m z z y z L L y m z y m 6 9 q L 0 0 t t r 6 * y y f H { { Q m s D D p z a e q 0 r 0 0 0 7 0 0 6 ",
"2 e y e q a 1 , q q 9 e e e > ; 0 0 0 0 0 0 0 0 6 0 0 7 > 6 q t t q t q q 4 - L t y s Q >.8.-.{ ( ( R R Q D y t e 0 0 0 7 0 0 6 ",
"2 e a y e m 2 ; & ; 1 4 7 e 3 9 6 3 3 6 2 * > 7 6 7 7 0 4 q t t y q t 0 q 3 - z z s z L -.t.t.t.w.<.( ( -.{ m y t q e q 0 q q 6 ",
"2 q y y e p 2 = y R @.1.@.w.R w.8.z L 8.y 2 0 a.8.f y a.-.{ m -.t.-.8.{ -.q > y z y y y m { >.8.d.1.~ R { Q f e t q q q 0 q q 6 ",
"2 e q 0 e a ; 1 R m z a a z z z t y y y y 2 0 f t t t t t t t t r r q q y 7 , y u u z z x x x z Q >.t.q.-.L y q f t t t t y e 3 ",
"2 e q 0 e z , 2 p z a a a z z f z z z f f 2 7 t t e q 0 q t t t z u t r y 6 > t t y u z x x F F L { { L L { { { z t q q q e e 9 ",
"1 e q 9 e p 2 3 a a y y y a y y q e t t y 2 0 z t q 0 0 t y z z y t r q y 6 : q t t t y u z z z s s y r t z  .>.{ z a e 0 e e 7 ",
"2 e e q y p 2 3 y t e e e e e e t y t t y 1 6 t t e q t z Q L L u u y y L 0 , t t t t t t t t t y y t q q t z z L D ~ R a t e 4 ",
"2 y y e y p 2 3 e e e e t t e e t t t t z 3 0 f q q t f L L f t t t t t u 5 : 8 t t t t t t t t z z t q q t y y y a R ~ p p a 0 ",
"3 z a e a p 2 3 y e e y f z z z t t e t f 3 0 y y z m Q Q L y t r t u u u 8 < x t t y u u u u u u y q 0 0 t y y z y z z a p a 9 ",
"3 z z y z D 2 3 p z z z z p m m L m y t e - , 3 3 3 4 3 2 2 1 2 2 5 5 < 5 : % t t t y u u u u u y t q 0 0 t t t D a a a e a y 9 ",
"3 z p a z D 2 4 ( R p z f f f f t e q q t 1 6 q f z y t q e y m u u t 8 6 > : x u y u y u y t r u y y t t t r 0 z e y a z n z 0 ",
"2 y z D e 7 ; 2 z z f y y y y y t t y q f > 0 y t y y y t e t t e e s  .` 2 * y y y t t t y y y r t y y q t y q q q y y y z y 0 ",
"7 y q e 4 > $ 2 q q q e t t t t t q t 0 y > 0 y t y f z f y e q m f t w e 2 ; f f y y t t e e e y y z y q 0 q 0 z y z z t y t 7 ",
"@ & + @ + O O 2 7 9 0 0 q q q q 0 0 e 9 y > 0 y t t t f L L m f 9 t f f L 7 # > 6 6 4 3 3 2 2 2 6 2 3 7 4 2 3 6 > - - - * - - # ",
"2 0 3 4 3 2 * , 0 0 q q q q 0 0 9 7 q 7 t > 0 y y y t y z { -.-.Q K f e y 6 & 3 , , 2 2 2 3 3 3 2 * * 3 4 2 3 6 0 7 8 0 0 q q 6 ",
"q 1.1.w.1.@.3 * 0 q e t t q 0 0 9 7 0 7 t > 0 y z z f y y y m { a.X.z t f 6 > f f z m L { O.-.-.-.0 7 V { F z z 8.-.8.r.8.t.8.L ",
"2 D z y z ~ 6 * 9 0 q t t t r q 0 0 q 7 t > 9 y q t y y t t y y f f m  .X.9 : t 0 q q q r t y y V 3 < q y r q 0 0 0 q y y z y 8 ",
"7 ~ y q q z 6 , 9 0 q t t t t t q 0 t 9 t > 7 t 0 q e t t t t y t t t w t 7 , y t t q q q q e e u 4 3 e y y y t 0 8 0 t y z y 0 ",
", y y z z z 3 , 0 0 q t y y y y t q t 0 t > 7 t y t q q e t t t f m t 6 0 9 2 t y t t q q q q q y 6 6 e t q e r y q q q q t e 6 ",
"> t e e y q 3 - 0 0 0 0 q r t t t 7 y 0 y , 0 z t y m q m e t t t q 7 q y 6 2 y y t q q e t t t y 7 < u y t y y y e q q y q y 6 ",
"2 e 0 0 z y 4 $ 6 6 6 7 0 0 0 0 t 0 z q t > 7 t y t y 9 y t f y f y e y t 2 , t t t t t t t t q 0 3 , y y y t t y q q q z t V 7 ",
"3 y q q z e 3 $ 3 3 6 7 0 0 7 7 y e Q y y 1 7 t t t f t L z z t y z y L z 6 6  .t y y t t e e e L q 3 L V z y y y t t t z y L 7 ",
"o 3 4 3 3 , ; * > > > , 1 1 , , , > 2 > , @ * > , 2 4 2 2 3 6 2 2 3 3 7 6 * - e y y f t e q e t t 2 $ 6 4 6 6 6 6 3 3 2 4 < 3 $ ",
"$ e D z D y m L m z z f z z z s { z L z L y z L y t e 7 , 7 s z y y t y y 3 2 f f s m m f t t t m 7 - q q t y y z y y q y q t < ",
"- y z z L D L L { L m z z z z s y t q q y y y t y f y q > 7 z L V z y z z 6 2 f t s Q >.X.Q f t f 7 , y y y y t y y y e y t y 2 ",
"; y y e y y t t y y t t t r q q e q q q e t e q 0 t y y , q s t y r e z z 7 3 z t f Q  .X.Q k t z 8 2 u y r e q q q q 8 t q t , ",
"- z D z z y m L y y f s s y t e q t t t e t q 0 e q q e > q H y y y t z z 6 3 m t t f f m m b y y 7 , y e q t y q q q 0 t q t , ",
"& e D p m y f z y p ~ Q p y e q t y t e q 0 q q q r r t < 7 r t u y y r x 6 6 t t t t t y u s z z 4 2 y q t e t t e f t f e f 1 ",
"$ q e e p p D D p D D f e e e e t t t q 0 0 0 q 0 q r r > 8 t t y y z t H 6 6 y t t t t t t t y y 3 2 y q t e e y t f f f t m 1 ",
"& 9 9 0 y z p a z z z y e e e y t t t e q 0 q q 7 q q 0 : 8 t t q t z t z 6 6 z t t t t t t r r t 2 2 y r y t e f t f t f t m 1 ",
"; e q 9 e e q 0 q e a z z y e e t t t q 0 0 8 0 8 t t 0 : 8 t r 0 q t t z 6 6 z y y t t t t r r y 2 2 y r y t t t e t e i e b 1 ",
", a y e e 9 0 7 0 q e z f a e e e e q q 9 7 6 6 q t t q > 0 t r q q r q z 6 7 u y y y y y y t t z 3 2 y q t t t t q t e y t m 1 ",
"; f p y y e e e e e e e e e e e y y y e q 0 9 9 t t t t 1 0 t r t r r q z 6 7 u y y u s u y t t V 6 2 y e y t y y e t t f t z , ",
"; a p y z y a z a y e e e e e e y y z y y e t t t r t z 3 9 t t t t t q s 6 6 u t t y y y y t t z 6 3 z t f y y y t y t f t y ; ",
", z z e a y a a a y y y a a f a e e y y y e t t t q t z 6 9 r s t t t q t 1 3 u t t t y t t r q y 3 3 L y z f f f t y t f e e & ",
"= a p e a a z a y y t a z z z f y y e e e e e e t e t m 1 > 1 6 3 3 6 2 , : : > 2 6 6 $ 2 6 3 3 6 * 2 6 6 6 2 6 6 0 0 3 2 > 2 + ",
", D D y z z p y y e e e y a z z p z a a a a a a Q m z z 1 3 q s L ` X.X.{ { { X.{ { y > 0 z L -. .e z m t 0 > - z y t q z z D 2 ",
"; y a e a z p a D p a y y a z z e e e i a a p D D D m f 1 6 t m t t y y y y y y z z t , 0 s z L >.Q >.>. .z 3 & y 0 7 7 y q q - ",
"; a p a D p R D p z y y a a a a a a z p n D R R e p m f 1 9 t e t q q q q q q 0 7 q t 1 q y q q t t z m m Q 0 * t q q q r 4 7 , ",
"; z R p p e t y e e e e a a a y z p p p z a y i a m a 9 ; 0 f t y t q q q t t t q t r > 0 y t t q e e w t m r ; 9 0 e e q 3 8 2 ",
"- y p z p e t y a a z z z y e e e e y z p a a i z t 4 , # 7 m m y t q 0 0 0 0 q r t r > 0 t t y i k e w e m f > 0 0 0 0 t 7 0 , ",
"& 9 q e a y a a a y e q 0 7 3 2 4 7 q e a a i e 6 2 = & + 6 z f H H x y t q r t t y y 2 r s t t t m t t t f f > y y y t y e y , ",
"X - & = 2 2 1 , 2 1 ; ; ; - & & & = ; 1 1 > ; = & @ + & $ 0 f e q r t t t q t y r t q - 6 q q t 0 f e i i t e * > 2 6 2 2 , 3 # "
};
