/* XPM */
static char *_66be5a2b30347f2a2aa0d5bb5f5709fRsX09RLk1DmLYW0e[] = {
/* columns rows colors chars-per-pixel */
"64 64 198 2 ",
"   c #251501",
".  c #2B1700",
"X  c #2C1C04",
"o  c #281B08",
"O  c #331E0B",
"+  c #2E200B",
"@  c #312106",
"#  c #33230C",
"$  c #3A250C",
"%  c #382306",
"&  c #2E2414",
"*  c #342613",
"=  c #352914",
"-  c #3B2B14",
";  c #372718",
":  c #352B1A",
">  c #3C2E1B",
",  c #392713",
"<  c #3D311D",
"1  c #382F20",
"2  c #3C3323",
"3  c #3F3826",
"4  c #442B0C",
"5  c #422E14",
"6  c #402F1B",
"7  c #413117",
"8  c #4A3114",
"9  c #43331C",
"0  c #49361D",
"q  c #4C391E",
"w  c #543D1F",
"e  c #433522",
"r  c #483724",
"t  c #443926",
"y  c #4B3A24",
"u  c #413728",
"i  c #453C2C",
"p  c #4B3D2D",
"a  c #513E24",
"s  c #513E2A",
"d  c #463D32",
"f  c #493F30",
"g  c #503E32",
"h  c #47402E",
"j  c #4A402F",
"k  c #524126",
"l  c #53432C",
"z  c #59462C",
"x  c #59482E",
"c  c #4C4334",
"v  c #4F4936",
"b  c #4D453A",
"n  c #4E4838",
"m  c #534534",
"M  c #554935",
"N  c #5A4A35",
"B  c #514738",
"V  c #544A3B",
"C  c #5B4D3B",
"Z  c #594733",
"A  c #5D503D",
"S  c #604728",
"D  c #624B2D",
"F  c #684D2F",
"G  c #6B532D",
"H  c #76592D",
"J  c #76592D",
"K  c #645136",
"L  c #6D5433",
"P  c #63543C",
"I  c #6A573B",
"U  c #6B5A3D",
"Y  c #735B36",
"T  c #755D3B",
"R  c #7A5D3E",
"E  c #7E6135",
"W  c #7A623C",
"Q  c #564D41",
"!  c #5B4F41",
"~  c #5D5242",
"^  c #5E5448",
"/  c #625443",
"(  c #665844",
")  c #6C5C42",
"_  c #625649",
"`  c #69594A",
"'  c #735E42",
"]  c #7E5F42",
"[  c #6E6046",
"{  c #746145",
"}  c #7A6344",
"|  c #74654A",
" . c #7B654A",
".. c #766A4E",
"X. c #7C6A4D",
"o. c #7D6B47",
"O. c #7F704F",
"+. c #7C6D53",
"@. c #786C55",
"#. c #7F775C",
"$. c #84643B",
"%. c #836544",
"&. c #856A45",
"*. c #8A6C43",
"=. c #836C4C",
"-. c #896E4D",
";. c #826749",
":. c #8B734F",
">. c #897049",
",. c #836E52",
"<. c #847253",
"1. c #8B7454",
"2. c #8B7956",
"3. c #847459",
"4. c #8B765A",
"5. c #81795F",
"6. c #8D7A5C",
"7. c #877956",
"8. c #937A55",
"9. c #937B5C",
"0. c #95784C",
"q. c #837C62",
"w. c #8D7D62",
"e. c #927E61",
"r. c #9C835D",
"t. c #998059",
"y. c #A6895D",
"u. c #8E8268",
"i. c #948364",
"p. c #9A8566",
"a. c #9B8967",
"s. c #95866A",
"d. c #9B8769",
"f. c #958A6D",
"g. c #9C8A6C",
"h. c #9F906F",
"j. c #968D70",
"k. c #9C8D71",
"l. c #9D9276",
"z. c #9F9579",
"x. c #A18762",
"c. c #A48A64",
"v. c #A28D6E",
"b. c #AB8F6C",
"n. c #A68A65",
"m. c #AE9165",
"M. c #A5916E",
"N. c #AA916D",
"B. c #B3966A",
"V. c #B6996D",
"C. c #B89B6F",
"Z. c #A28E71",
"A. c #A98F71",
"S. c #A59273",
"D. c #A99576",
"F. c #AD9676",
"G. c #AB9475",
"H. c #AD9876",
"J. c #A4957A",
"K. c #AA9679",
"L. c #AF977A",
"P. c #AB9679",
"I. c #A49A7A",
"U. c #AD987A",
"Y. c #AD9A7C",
"T. c #B19674",
"R. c #B29976",
"E. c #BA9D72",
"W. c #B09778",
"Q. c #B19979",
"!. c #B29C7E",
"~. c #B49B7B",
"^. c #BA9E7D",
"/. c #BEA175",
"(. c #BBA17E",
"). c #B4A07D",
"_. c #C09F7E",
"`. c #C0A377",
"'. c #C2A47B",
"]. c #C6A97D",
"[. c #C8AB7F",
"{. c #AE9D81",
"}. c #B39D81",
"|. c #B89F81",
" X c #B6A182",
".X c #BCA383",
"XX c #BBA489",
"oX c #BFA888",
"OX c #C2A583",
"+X c #C9A685",
"@X c #C3A986",
"#X c #CBAC83",
"$X c #C5AB8A",
"%X c #CAAA8A",
"&X c #C0A68B",
"*X c #CEB18F",
"=X c #CEB592",
"-X c #D2B793",
/* pixels */
"* u 2 2 2 > > : > = > > < > r   4 1.;.} ' T I U { =.1.1.1.1.T.p.e B i 2 u 2 1 * : * > u i i u ; w 9.:.-.=.1.1.1.,.1.,.7.6.i.i.X.",
"u M m m M m M M C C / P / P ( 0 ' .X|.!.!.L.K.Y.}.XXoX.X.XQ.*XF.p _ C M ! V M m B c B M B M f > } .XF.S.F.F.F.U.D.U.S.D.D.U.U.e.",
": c c c m c M M m m C N C M C - D G.A.S.A.Z.Z.S.U.!.!.!.^.G..X9.> V M m V B B B c f f f f B f ; { .XF.S.S.D.S.D.D.U.S.S.Z.Z.Z.3.",
": m m c c j M M C M C C C M A - K Q.D.D.K.D.S.S.S.S.S.Q..XQ.OX9.> M m c M m m m f f f i f C B > I Q.v.g.v.v.g.v.v.S.g.g.d.d.d.X.",
"> M M m m m C M M m M l m j N - K L.S.S.S.S.Z.Z.Z.v.v.S.Q.G.^.1.r C m c C M C M C C M m m ~ C r U !.S.S.S.D.S.D.S.S.g.k.g.k.k.<.",
"; c c i c m C M A C C M M M P 9 K U.S.S.S.D.S.S.K.K.S.F.!.F..X9.r C m c C C A C ! C C M M ~ C p U U.v.v.v.S.S.S.Z.S.f.f.f.f.f.+.",
": m c c m V ~ C M m M l M l C 7 K P.Z.v.Z.S.Z.S.k.Z.v.S.F.v.^.6.r / C C / ~ / / ~ C A ~ C / ~ M U !.S.g.Z.S.S.S.S.J.k.k.k.k.k.+.",
": c i i c M C m M m N M N M P 9 I U.Z.g.k.Z.k.k.S.J.K.L.W.v.!.9.9 / ~ C ~ C C ~ ~ C ~ / C C C l ) !.S.v.Z.S.Z.S.S.S.g.g.k.k.k.+.",
"; i i i m m C M M M l M N l l p { S.d.k.f.k.S.k.k.J.}.D.S.D.!.9.0 M C N C / A C C C M N M M A p { U.v.Z.v.S.S.S.S.S.S.g.S.s.f.,.",
": c i i c m C M M C m C C N C l | D.d.k.j.S.J.J.Z.S.U.S.L.Q.^.1.0 M A C C A C C N C C A C C A p ' U.S.S.v.v.Z.Z.S.Z.Z.f.Z.s.f.<.",
": i i i c m C m m C m N N m M p | S.s.f.s.k.l.k.S.Z.S.Z.Q.Q.~.<.- l N M Z N M M M Z M Z M M N 0 ' !.F.Q.F.D.S.v.Z.S.S.g.Z.d.g.3.",
": m m m C C ~ C C A N C N M Z k +.I.f.j.f.j.l.j.k.f.k.g.F.F.W.=.- l C N N N N C N N l Z M N P p T !.Q.~.W.Q.F.D.v.v.v.g.v.i.g.<.",
"* p c m C C ~ M M A M M M m N l ..S.s.l.j.j.j.f.k.s.k.g.F.L.!.4.# j N M l M M Z M Z l Z N N C y } .X^.~.Q.~.!.Q.v.v.S.v.S.p.v.1.",
"; m M C / ~ / C C / C N M l M p ..S.s.z.l.l.l.k.i.w.i.i.v.v.Q.9.- k N l l M l M M N Z A P A C 0 { (.~.R.G.T.R.F.v.v.v.v.S.p.v.=.",
"> M M C / ~ / C C ( / / A C C l 3.I.f.I.z.z.z.l.J.k.g.g.D.F..Xp.5 l Z l Z N N N N C Z N N N N 0 } $XOX(.^.(.OX.X~.~.~.~..XR.R.8.",
"  > > > 9 9 r < > p l Z N Z N k | f.#.u.q.5.q.5.+.) ) P ) ' =.D . - 9 7 0 a k k p q - - - - 9 @ % =.=.;.;.<.7.<.o.}  . .,.} { w ",
"x I I K ) ....| +.3.w.i.s.w.f.P M M V v v v v B n M M r y k 9 5 <.9.9.1.9.2.1.1.1.;.,.o.} } ' . > r 9 > r p y i r t e 2 r t > o ",
"4.g.Z.g.S.K.K.K.S.S.D.D.D.Z.K.{ M v n n n n n b ~ Q ~ C ( ` N N $X-X*X$XOX^.T.T..X^.$X@X.XQ.v.a C ~ C B C C B B B V B b V C c 2 ",
"3.d.S.Z.S.D.D.D.Y.K.S.v.v.d.S.P c n n n c c c n c i c m / A p z !.OXOXQ.T.b.v.n.T.F..X.X!.G.9.5 r f i u i f i i c c c c n B i 1 ",
"4.g.S.Z.S.K.D.D.Y.D.v.g.v.g.S.P c n n n n n b b d d n m C M r a ~.@X@X(.(.^.Q.~.^.!.@X.X.X!.v.q r c c c B B n B i f f f n n i 2 ",
"d.S.D.S.Y.}.Y.Y.Y.D.S.S.D.S.K.) j n n b b b b b b ! _ M M C p s W.OXOX^.^.R.T.Q.).~..X.X!.~.v.q e c c i f i u u c c c n B B c u ",
"i.g.g.g.S.D.S.S.D.S.Z.S.D.Z.S.P j n b b b b b b c Q ! f m C p a Q.@X$X.X).R.T.Q..X).$XOX.X.Xv.0 p n n c c f i i c c c c n n i u ",
"g.D.K.D.P.P.D.P.K.D.S.D.K.S.K.) m B V B b b b b b b V f M C p s F..X@X.X).Q.R.~.!.!.@X.X X Xv.0 e c c i c f i c n n n B B n c i ",
"i.S.D.S.S.Z.v.S.S.S.S.S.S.Z.D.) C ! ! Q V b b b b f f c ! ! p p F..X@X.X^.R.F.Q.W.F.!.F.F.!.v.q i B B c c c f c n c c n n c i u ",
"e.S.S.K.P.S.S.v.D.g.Z.D.Z.g.K.) C ~ ^ ~ Q B b b b b B c B C g p D.OX$X.X.X.X!.Q.F.U.!.Q.L.D.v.q i B M n m c c n c i n c c n u 2 ",
"g.Y.S.g.Z.Z.K.D.Z.g.S.S.g.d.D.U C C ! ~ ~ Q V V Q b Q B M ! g p A..XOX^.).).Q.G.F.S.F.D.S.Z.v.q i V C B B B n B B c B c n B u 2 ",
"<.v.Z.v.S.S.D.v.d.g.S.S.g.g.K.P N M M V C ~ ! V Q b V B C ! m y L..X.X|..X.X!.F.S.v.v.v.g.g.g.r i B B n B B n B n c n c c n 3 1 ",
"I i.Z.S.S.Z.Z.i.i.g.S.v.g.S.U.N N C C C ~ / ^ ^ ^ Q ! M ! _ M p Z.R.W.F.~.!.F.Z.S.v.g.d.d.d.d.r j V B B C C C ! V n B c n B u 2 ",
"X.S.Y.S.g.d.v.d.d.g.S.Z.S.K.U.z l Z N M M C A ! ~ B V m C / m y D.Q.W.F.|..X!.Q.Q.S.Z.Z.Z.g.g.k i n n c B B B B B n B c c B u 2 ",
"=.Z.S.g.i.e.d.i.i.i.d.d.d.d.d.0 x K P C N A ~ ~ ^ C ~ V ~ ( M s Z.F.G.S.!.|.!.Q.S.v.v.v.v.d.d.y c B B n B C B C C n B n n V i u ",
"7.Z.S.K.Y.D.K.S.Z.Z.D.D.S.Z.S.z N P P P A / / C ~ C ~ C C / M l D.W.F.G.Q.!.Q.!.!.L.!. X X!.U.N m C B n V C B C V n B n B C c i ",
"N ) U { +.+.+...U ) ....| ) | @ - 7 9 7 9 r r > > > 9 - - 9 , # ' } } ' } } }  .X. .X.3.4.,.+.X * > : * : : : : > : < : > e = & ",
"< e > = : = = > < e 2 t t e 2 o P X.{ '  .|  .X.,.,.,.X. .=.i.z l l l k r 0 9 - > 9 0 r r p 9 X l ..) ) P | ..#.@.+.+.+.+...<.r ",
"B A C C ~ C M V c c c n c c n < f. XU.L.}.!.}.XX&XoX&X.X.X.X=X2.Z N C A A A A A C A / / / ( C 9 6. XY.P.S.J.J.J.J.J.J.J.J.S.{.X.",
"u j c c v c i i i i 3 3 u i j > 6.D.v.v.S.Z.L.}.~.!.!.Q.Q.~.@Xo.l l M Z Z N C C C C C C C C M - X.D.k.k.s.s.w.w.u.s.f.s.i.i.S.{ ",
"c n c c v n c n h h 3 u 3 i c < w.U.D.S.L.D.}.oX|.}.|.|..X.X=X1.l M M M l l M M M M N N C C m , <.D.k.g.s.f.s.s.j.j.k.j.k.g.Y.o.",
"i c j h c c i c n n i h i j n < 6.D.S.S.K.D.}.XX}.}.}.!..X@X-X1.z Z Z M M Z N C C C C C C ( C 6 +.S.d.d.i.f.s.f.i.s.s.s.g.g.D.U ",
"c v B V A V c n h h u i u i j - w.D.S.S.L.K.}.XXoX}..X.X.X$X=X1.l M M M l M M N C N C C C / m , +.S.g.g.f.k.s.s.s.f.f.d.S.S.U.U ",
"u j c c B n j c c c i i i c m < e.F.v.v.K.K.Y.}.}.Y.!.!..XOX$X} N C C N N Z M N C N N C C ( C > X.M.d.d.s.g.s.s.f.k.Z.v.D.H..X} ",
"i c i i n n c M c c i j j c M t i.F.Z.v.L.K.Y.}.K.D.Q.!..X.XOXR z Z N N N Z N N M m M N C ( C 9 <.S.d.d.i.g.f.k.f.S.S.M.S.F..X&.",
"j M c i j c j n j i i i i n M j e.F.F.D.K.K.Y.S.Y.Z.S.Q.|..X$X=.z / N M N Z C N M l l l m C C y 4.G.v.d.g.d.g.k.k.S.v.g.G.~..XW ",
"i m c i i i i c i i j c i n M m g.~.U.S.D.S.K.S.v.g.v.S.W.Q.OX] l P N N N N C M N M N M M C C p 7.S.g.i.f.d.g.g.g.S.S.G.).(.$X&.",
"i m c i i i i i u u i i i i m l D..XQ.S.S.S.J.S.Z.Z.S.F.~..X$XR r N M M N M N m l l M m p m m r 4.S.g.d.v.v.M.S.v.S.D.).@XOX#X*.",
"i M m c c c c m i i i i i c c p Z.~.D.v.Z.g.S.S.Z.k.v.v.F..XOXF y C N N C N C C N M N M m M m r 4.M.d.i.v.v.S.S.S.S.H..X$X/.'.&.",
"i m m i c c i c m i i i i i i < p.S.v.v.Z.Z.J.J.K.D.v.v.Q.$X%XL 0 N Z Z N Z C C C M M M M C m 6 9.D.v.d.S.S.D.D.D.H.~.OX$X/.'.*.",
"i M m c m m m M M c p i i c i > 6.c.p.d.v.f.S.S.S.Z.g.v.W.OX@XL 0 N N N N N C C C M M M M C g , 6.G.g.p.g.g.M.M.v.S.R.R.^.V.E.$.",
"f M m c m m M C M c c c p c i 9 v.W.D.F.U.D.{.{.Y.Y.Y.!.|.OX+XR y P P P P P / P / C C C C C g , g..X~.S.D.D.U.Y.~..X@XOX'./.'.$.",
"+ = , # , , , > , , , - # $ $ X I  .' ' ' ) | | 3.3.w.e.4.1.9.8 $ k k l l a k a l k l a r 0 - . P <...) ' U { | =.6.9.1.1.-.-.4 ",
"z U U ' } R ;.-.;.R ] R %.;.-.w $ s e y r y t p C N C C N l Z $ F r.N.n.c.r.x.c.t.r.r.t.r.8.8.8 X e > * > > 2 < e t e > > r y + ",
"2.G.!..X$X$X%X#X#XOX+X'.'.'.E.Y s ` C / / ( / ` / C ! C C m C 5 x.#X#X].].`.'.'.[.#X#X].[.'.'.W y ^ V B ! C ~ ! C ^ C V C ~ ~ 3 ",
"T p.G.~..X(.@X_.'._.+X'.+X'.B.S r / M C C C C ~ ~ M M m m i M - N.'.E.B.E.C.C.C.B.C.C.B.C.B.B.G = n c i n c c c c B n B B C B : ",
"} g.G.F.~..X$XOX^.OX%XOX%X*X.XL 9 ! m m m M M V M m m j c i m - F.'.C.C./.E.E.E.E./.E.E./.E./.T - B n c B b B n c n f n n B c & ",
"=.M.F.G.R.^.OX^.T.Q..XW.~..XW.D e ^ M C M ~ C C M n M c m i m = p.C.B.B.E.B.B.C.C.E.C.C.E.E.E.Y - n c i n c c c B M n B B V V 2 ",
"t.~.~.~..X.X.XW.v.F.|.F.Q.}.S.l < ~ v B m C B B B n B M M i m , r././.E.'.E.C.E.C.E.C.C.E.E./.T 9 C B c B n B B B B c n n B B 2 ",
"a.~.R.~..X!.!.S.v.Z.K.S.Y.}.S.x < ~ B V B ~ C V M c M n n i n = 8.E.E.C.E.C.C.B.C.E.E.C.E.E.E.Y , V n c n c c n B B n B n n V i ",
"G.).F.Q..X!.!.D.U.S.Z.k.P.}.J.N < ~ B B B ~ V B V n B n n h B = 9./.E.B.C.E./.E.E.E.E.E./.E./.Y > C V n B n n n n B n B n n V i ",
"H.G.G.S.M.M.M.M.S.Z.S.k.J.{.J.N > C C V C B B B B V c n v B c # 8.E.E.B.C.C.E.E.E.C.E.E.E.E./.L > C B c n f c c n c c n c n n i ",
"S.M.M.v.M.M.M.S.f.g.S.k.J.Y.Z.l < ~ A V C B B V B C n v v B v = 8./.`.E.E.C.E.E./.E./././././.Y > C B c B c n n B c B n c n n u ",
"v.v.g.g.g.g.g.g.d.d.Z.d.Z.D.Z.N < ~ C M M n m B c M c c c c m > 1.C.E.C.E.C.E.E.E.C.E.E.E.C.E.L - B n f c f c c c c n c i d c 3 ",
"S.S.v.v.g.g.d.d.g.g.S.g.v.F.D.I e ~ ~ V ! B M B m B m v c n C y r./.E.C./.E.E.C.E.E./././.E.'.T 9 C B c B n n B B B V B c n n d ",
"g.g.g.d.i.i.i.i.a.i.g.d.v.S.b.L > C C M C M m m m M m m c c M y F.].E.B.E.C.C.B.E.E./.E.C.E.'.W > V n i n c c c n n B n f c c u ",
"v.g.g.d.d.d.g.h.g.g.S.N.R.R.T.L 0 ~ C C / C C M C C M C m c M r R.#X/.E.'././.E././.'./.E.E.#X-.9 C n i n c c c B n n n c c c u ",
"S.S.g.g.g.h.S.S.S.v.M.M.F.T.b.L y ( ! C / C C C C C C / C M C s b.]./.E./.C.B.B.m.m.B.m.m.C.#X:.r ~ b c b n n n V n n B B C V f ",
"6.4.<.<.O.<.7.7.2.o.} T } &.%.4 O i > ; > > > > > e e p p r p 6 &.y.y.t.0.E J J J J E E E *.n.L # i 2 : 2 : 1 : 2 : : 2 u c f 2 "
};
