/* XPM */
static char *_e478d95f85547eeb4a710cb9e79622a0gZZLV2HYJUQBnUH[] = {
/* columns rows colors chars-per-pixel */
"64 64 154 2 ",
"   c #050300",
".  c #090600",
"X  c #0D0A01",
"o  c #110E03",
"O  c #120F08",
"+  c #131106",
"@  c #161409",
"#  c #19160B",
"$  c #1B190E",
"%  c #1A1710",
"&  c #1E1B11",
"*  c #211E14",
"=  c #221F18",
"-  c #232115",
";  c #262419",
":  c #29261B",
">  c #2C291E",
",  c #2A2720",
"<  c #2E2B21",
"1  c #312E24",
"2  c #333125",
"3  c #363329",
"4  c #39362C",
"5  c #3C3A2E",
"6  c #383530",
"7  c #3E3C31",
"8  c #413E34",
"9  c #413E38",
"0  c #444136",
"q  c #45423A",
"w  c #49463B",
"e  c #4B493D",
"r  c #4A4740",
"t  c #4E4C42",
"y  c #514E44",
"u  c #524F48",
"i  c #545246",
"p  c #565349",
"a  c #59564C",
"s  c #5B594D",
"d  c #5A5750",
"f  c #5E5B51",
"g  c #615F54",
"h  c #625F58",
"j  c #646156",
"k  c #666459",
"l  c #69665B",
"z  c #6C695D",
"x  c #6A6760",
"c  c #6E6C61",
"v  c #706E63",
"b  c #726F68",
"n  c #747266",
"m  c #787667",
"M  c #767469",
"N  c #79766B",
"B  c #7C7A6D",
"V  c #7A7770",
"C  c #7E7C71",
"Z  c #807E6F",
"A  c #817E73",
"S  c #827F78",
"D  c #81806E",
"F  c #858376",
"G  c #848275",
"H  c #878576",
"J  c #848275",
"K  c #888677",
"L  c #8A8976",
"P  c #858279",
"I  c #86837A",
"U  c #868478",
"Y  c #878578",
"T  c #878579",
"R  c #87847B",
"E  c #868479",
"W  c #888679",
"Q  c #88867A",
"!  c #89877A",
"~  c #89877B",
"^  c #88857C",
"/  c #89867D",
"(  c #8A877E",
")  c #89867A",
"_  c #8A8879",
"`  c #8A887B",
"'  c #8B897A",
"]  c #8A887C",
"[  c #8B897C",
"{  c #8B897D",
"}  c #8B887F",
"|  c #8C8A7D",
" . c #8C8A7E",
".. c #8D8B7E",
"X. c #8D8B7F",
"o. c #8E8C7F",
"O. c #8C8A7D",
"+. c #908E7F",
"@. c #92917D",
"#. c #8D8A81",
"$. c #8E8C80",
"%. c #8F8D80",
"&. c #8F8D81",
"*. c #8F8C83",
"=. c #8E8C81",
"-. c #908E81",
";. c #908E82",
":. c #918F82",
">. c #918F83",
",. c #918E83",
"<. c #929083",
"1. c #929084",
"2. c #939184",
"3. c #939185",
"4. c #939087",
"5. c #949285",
"6. c #949286",
"7. c #959386",
"8. c #969487",
"9. c #949285",
"0. c #989687",
"q. c #949188",
"w. c #969488",
"e. c #979588",
"r. c #979589",
"t. c #97948B",
"y. c #969489",
"u. c #989689",
"i. c #98968A",
"p. c #99978A",
"a. c #99978B",
"s. c #99978A",
"d. c #9A988C",
"f. c #9B998C",
"g. c #9B998D",
"h. c #9C9A8D",
"j. c #9C9A8E",
"k. c #9E9C8F",
"l. c #9B998D",
"z. c #9E9C91",
"x. c #A09E8F",
"c. c #A09E91",
"v. c #A19F93",
"b. c #A19E92",
"n. c #A4A296",
"m. c #A3A195",
"M. c #A6A498",
"N. c #A8A69A",
"B. c #A9A79A",
"V. c #A9A79B",
"C. c #ABA99C",
"Z. c #ABA99C",
"A. c #B0AEA2",
"S. c #B3B1A4",
/* pixels */
"j V ^ R I B B >.R ~ ~ A a # X 2 g z B 4.d.N.i.p $ 5 i m A M F J F ` F F X.J N F X.n.R z : o 1 t c B X.` J X.8.>.8.j.J z i $ # a ",
"u l I ^ V J X.R 4.i.n 4 * ; - + $ > w z N ~ C w $ 0 s n m n F J X.H J ` &.B m o.&.n.J w $ < q s X.X.&.X.` 4.i.7.X.>.i.X.J a * > ",
"9 s V q.4.J J &.R s : @ 2 s z p 1 - @ - 4 i j 0 & 0 s v N A ~ A B N m A F N N X.~ J j ; X 4 q m ] ~ R F F ~ X.o.<.~ k.4.i.<.5 + ",
"4 t M 4.&.R ~ R a - - i M J o.7.B g 5 ; $ - 3 1 * 5 i z J >.X.m m J F A F ] H B k j f , = t w V R ] X.X.X.` o.d.i.o.8.] w.C.v - ",
": 0 c B n #.~ e $ 2 z >.>.] X.~ X.4.] N y : * @ # > w j B &.~ C F ~ ] ~ ^ ^ V k a f t o X a f n ] o.~ ~ >.>.>.j.o.<.>.7.w.N.w.5 ",
"o q a l ^ n 4 - 3 j o.7.X.7.<.B J 4.i.v.7.v p 7 # $ 3 t k N F w.&.C A &.^ M l f j t ; @ @ 0 d c X.] N M ] o.R ] F X.J >.X.7.v.a ",
"@ 4 t v I 9 # t F &.o.` &.>.~ J ~ ~ B ~ d.i.4.A e : ; 2 w g n j.w.V V R n f u t 0 ; $ f t < q i V ] J B >.7.~ X.~ m v J C F i.n ",
"1 @ i A 5 $ f w.F &.&.>.7.~ A X.R &.C m C F 7.d.4.w - & 2 w s R ] B n k q 1 , & @ X . g 9 . 6 q a C ] R 4.>.R &.X.l z C A ] >.F ",
"0 @ w < ; a B &.B ~ &.] ~ ] ~ A ] >.F N C N C &.n.M j < o 2 q i c p 3 * @ $ - , u u q 4 < % O - 4 i N B V ~ I ^ z z z l n C c z ",
"% . $ 1 q n ] R C A C M m J o.<.A R J B N n M B 7.n n n 7 o $ 4 - $ @ $ : 7 u f k j k b n a 1 $ : 2 w s v A B z j k k f s e < & ",
"2 3 X 0 z V A v n B ~ X.` F C B R ~ &.&.F A C m d.B f ~ B $   - 2 3 8 y g z N F J A ^ #.V l f a - % = 5 a v n f k l i 4 $ . % : ",
"A V - , f c N N n C ` >.X.J B B R F &.4.R F J n X.R B J i # 1 s N B H o.>.X.] o.&.C J &.#.] A c k e ; = , q k l f 9 $ $ , t n N ",
"I g.t $ u c C B v N H ` ~ F F H R F X.&.F ~ ~ m F &.i.g + : n H ` ' <.8.7.o.o.+.] A ~ 7.4.<.>.J k g w 3 ; & 4 i q : = 9 k V J v ",
"M v.v % q c B c B ~ >.] F J J C ] ~ ] R F ] ] A ~ v.v * ; j C F ` L ' o.' ` ` o.o.+.7.X.B A 4.k.N.^ g u g w o . $ $ w v A ] I J ",
"t.z.a @ = 7 f l F >.>.A m J ` ~ F ~ A m C R J C A 7.7 # i c m X.0.@.@.@.+.L L L +.' G J ' ' F A 7.z.w.c z a 7 ^ t 4 c ^ #.d.J A ",
"*.M : , = o : w t v ` X.o.8.<.F X.7.R N ~ &.~ ~ w.a + 7 f l d.J ' L H L ' ' L L H @.~ B A B N H ] g.z.c z i : J 9 3 I q.I &.N >.",
"y 3 * 0 m t X $ 2 i i v C 7.&.R >.F C A R B n ] n & - i c R R F +.' Z L <.K ` X.B ` G N J J B ~ i.~ J k 5 & o # + 3 m v n ~ ~ m ",
"< : s &.d.4.l 1 $ - 5 p g c v n N F ~ >.~ F 4.J : ; 0 n J B C C F 0.<.' X.+.<.H B H J B ` o.' <.F A C w + ; 0 e ; & 3 8 0 8 w : ",
"0 i ~ i.C 4.N.~ 0 + * : ; : < 7 0 i s n n m R 7 # q s C 4.C A B B 8.i.<.` ` o.J J K G G o.+.' o.A C y # : y g A c 1   < y $ & : ",
"j F X.C c c &.Z.v + ; 4 5 : $ $ $ - $ < 4 e p - 2 a z F >.R R J A G ` d.o.N J H ' +.o.' ' K Z B ] f - & s n v w.w.l 2 e B 5 - y ",
"N 7.N n C c n >.F $ 1 i l k g g i e 4 - $ @ + $ 5 e N X.~ ~ F ~ F m B d.+.m H >.+.<.8.0.+.H B m N ; ; p l m ] 4.v.] j - & - 8 n ",
"F 7.R R A M J N &.> : t l C 4.d.M.v.d.] A g : * e 0 v J R >.A A A N B >.` H d.0.K K 7.k.0.o.H N w $ 3 l N R &.&.] C v.k & * a B ",
"n ~ 4.m.~ n R v F 5 ; y z F X.A J ] >.m.A.z.j & 7 e f n X.4.A B C B F X.A ~ v.8.F B ] j.i.>.A z * 2 t z w.j.J ~ B g F J 0 o 7 n ",
"M C n ~ R c J F 7.e # q l 7.d.J B R N F ~ 7.&.2 . e s n 7.R C J J B J X.B C i.>.F m J 7.4.~ n p # 5 c ] i.d.R J n n n 4.X.> : p ",
"z n ] &.m n A F w.l . < M >.] F N R N N B R 4.M # 2 y f M R A ~ m F ] F J ~ X.` F k J j.N M n : $ y m &.m.i.R ] n n F R z.s $ a ",
"A F 4.4.F m B A ] n - 4 v ~ F A n n C w.X.n ~ 4.> # 7 k l k c A ] R F ~ X.] F A j n ~ >.m v g - 0 z A R i.4.B n m N J J n.f $ i ",
"A X.4.7.>.J M M i.N - - s A ~ J 7.J J i.X.n J w.j # : p y p v B C N C X.>.F m m &.A g g m n e @ 0 z M z n C A R &.J n v v.c : e ",
"j C R F X.~ N m R z : - y v N M m F >.&.B M ~ 4.l - * 5 0 a j a c n A R N c v B A v p f j q : # > g J A M n N X.N.m n A J 3 + 0 ",
"y M R A F F n z 0 4 $ + - > 7 t s z A C N A c y 2 # + + - 5 e a k n B n j s j v z p 0 0 : + $ & - 0 j n N N ] m.~ B ] k 2 o # # ",
"< i c z j y 3 - + + @ # ; $ # @ 2 2 0 w w 0 > @ > 3 5 : & + + 7 8 t s f s i e q 0 : o + & 0 k i # + ; e l n N A n g p ; $ e f @ ",
"& - 1 5 : $ + @ 3 8 s l C c t : o   $ & + + - e f N X.B j 5 X X $ & : 5 0 5 > ; . $ > e j R N.z.A p < $ $ > w s j > * 5 j m R k ",
"w & + $ @ - y m ~ &.j.] d.m.m.>.f - $ : 7 p g N ~ >.w.&.w.d.v e $ X . @ $ + # : t j v F &.] 7.i.n.z.>.z 5 $ @ + o 4 j n R J >.&.",
"w.> $ ; 2 j ] X.4.7.J A J A 4.j.7.: : z z 8.~ ` 7.i.<.~ ` i.k.d.J i - X $ % t l P >.>.#.4.7.&.X.F ` v.S.d.B a & + e A R ^ >.^ #.",
"n : + 5 s M X.4.X.F n B J F w.j.A - 3 l v H X.7.4.7.<.o.o.<.d.z.o.2.f - . 7 x f V R ^ R ] R J G ` H 7.Z.v.A m i X 2 v #.^ B n ^ ",
"0 - & t M J J F R B m J C F j.d.i @ w j n v X.7.X.` ` X.~ H o.d.o.m.m e . 0 l h ^ >.>.4.>.~ F X.>.F R j.z.n F z & 4 k B R #.V V ",
"# o - y n >.F A A J R R M J d.] - # a k z z ` >.` R F J A A R o.G <.A z $ < a k #.q.q.w.>.J A o.7.~ F >.j.z J j : 5 l V V n t < ",
"0 + ; i l 7.C m B R ~ F N X.7.z o 1 l z j M &.4.>.>.~ B B ~ X.~ Z 8.j.z ; ; d f #.q.q.7.&.A B ' 4.X.~ ~ v.A X.k : $ 4 u 9 ; % < ",
"] 1 & a z 7.A A J ~ J J &.z.] q @ e z v j J 7.w.7.7.] B A o.>.H F +.k.z 3 $ i j S #.#.] R B B K 7.>.X.A d.7.>.c 7 o X @ $ , t v ",
"&.i + e z &.i.d.] &.J ~ i.w.z ; : s n m n ` w.8.<.>.` F H X.X.~ ~ J >.N t o 7 l c V V m m m m Z >.] ] B &.i.J c i - = 3 u n C V ",
"~ R & 5 p n 7.&.~ >.F X.7.m 0 X 4 j B H o.7.d.7.>.X.X.o.o.` ] &.` ' 8.~ f $ 3 d x V V m C J F K H C ~ B ~ i.M v y # : k I #.>.q.",
"] v.0 + p n ~ m B F >.4.m w - @ w v o.J 8.o.>.X.o.X.X.&.o.] X.<.2.>.>.z.l , & i f v v k n H H B J ` H F &.&.N l - 1 i n I q.q.^ ",
"j.B j X 1 w n M J n j p 5 ; o $ 5 z <.F X.F ~ R ~ ] &.&.~ A J ` 2.7.d.C.P 4 & r k c z z m A G ` i.&.>.` F ` c 2 $ e v M A R A A ",
"n &.B + * # - : 1 ; - ; - < @ : 5 l ~ B J F ` F B H o.X.F B A ~ Z G X.i.#.7 % 9 f k l v B F ` 7.d.d.>.F H N w o q c B B C n n d.",
"m w.0 + ; : 4 8 5 8 e p s c 4 : 0 j n v B o.>.F B F ` ~ J B A ~ N B A ~ q.w = 7 u n I J ] 7.8.7.o.m.~ C >.s $ ; a N V c V I v j ",
"J e . < e i n m A F ~ C B &.y + 0 s c n M ` X.C J F F J A A J J N J F H q.t & : q b >.4.4.>.` H >.i.] ] C 1 o t z A >.I c l c v ",
"1 @ 2 i R n c B ] R R m m ] z + 1 y n J n B B m C C B B J ~ ~ H m ` o.>.q.f ; % 9 f A w.i.` J o.z.~ 4.<.t @ > f C F #.V j x C V ",
"o 4 p i R R C w.&.J ~ R R ] &.: $ 5 j F M B C B C A A A H X.X.R H 0.>.` V f , % q a c J X.~ K 8.<.J o.c - - p f l A n a l R j % ",
"i f 5 s s M 4.F J c N F F N z.3 + : y C N ] X.] X.o.X.~ ~ ~ F B o.8.N j w 7 @   4 t i i g c n n n R C 7 + 7 c g n B M N c , . : ",
"a p f s s n J X.N N #.I A N n.f X ; w l A &.#.J J >.A J #.] >.R c l a 7 - X o % o ; = 3 g g r d i c i $ 1 u j d d t q , X & q u ",
"l v A A M m J X.B J >.^ #.V g.l = , 7 t u i a f f v B #.q.^ I n y > + $ 2 0 p l g , , & & 3 6 7 1 4 , @ = ; ; = O X @ o & i l A ",
"B C F ~ J B F >.A X.>.R #.N q.V @ & 3 e i t u p t u u s p t u 0 o & 5 p g j v A V B t ; 9 , @ O , @   o @ @ $ , 4 7 3 o @ f l ^ ",
"d.>.J ] w.>.>.&.] >.>.V V J z.B % $ $ % ; ; : : , , 1 3 1 < , $ : a N n g j n V 4.k t q & < z.4 7 ; % 7 q a g n M R n 4 X 0 j A ",
"i.8.A &.v.<.R N q.X.] V A q.>.q @ - : = % $ @ X .   . . X @ + . k v z s f m J M A >.c a i , u + ; < 5 j c F A B A &.~ n : - a n ",
"J 4.B F &.A J A w.F I ^ q.g.l @ 3 f J ^ A C B v k s u 9 5 , % : z z z v B J A m C *.A i k 3 . ; w f z B R i.7.X.>.J B 4.a + 0 k ",
"N d.H F X.J >.7.X.J V #.g.c , % y z A A B F &.7.m.d.d.w.F 0 + 3 n B F F C C ~ 4.F R q.g g e . < f v N M H H ~ >.7.J N ~ B : 4 j ",
"c d.~ ~ 4.J ~ A C F N ^ #.4   q j z n m N B B C X.C J &.F 5 @ f ~ X.H B F i.j.4.C >.z.z a a ; : y l J ` v.J N R ~ >.o.n ] 5 - w ",
"k B R B M A R A J F A n 5 + % p l A R n B X.~ ] J z.n >.n . 1 m A H N v C ~ ~ o.C M R w.k g ; @ e z J X.&.F N N i.H B n F s # 2 ",
"s j k g f k z v j R k < 3 3 o p C &.4.B n J &.] X.R z.F : & g A G N z v A ` ` X.~ X.z &.^ j q X 0 l A J F ~ ` X.H 8.N k >.c $ : ",
"$ # $ * * $ & * 2 5 - $ v #.: e n ] w.J v B >.~ ~ w.8.0 X 8 m i.j.~ J ` <.8.d.d.A B n A w.n w $ : a m B J >.g.j.>.7.N M A q . & ",
"5 0 e i i e 8 5 ; + o - f A 1 $ e B X.A B J X.] X.d.t X 1 k R m.x.<.<.8.o.+.8.>.n m R B N v p 2 $ 0 s s j v B R &.n z z 8 o $ , ",
"N R &.X.~ H C n M n p : X : ; @ 7 A J M H ~ ` 4.4.i $ - i J 4.&.<.X.o.' G o.>.B C i.F R k g v 1   X @ % ; 1 7 u f 9 , %   & f c ",
"M B B n c n M n N i.>.^ v t % X a 7.J n H ~ &.<.z o $ q z X.m C ~ H J B H 0.<.m 4.i.7.] z z e + , 1 < , : @ . X . . . % q f g z ",
"J A B B C J J A F J C >.q.l - 5 z <.H A F X.i.B > # 5 s A H l B B D m n B ` G B 8.` C.M z s + # 9 u f l b c h f w < & $ 3 t i B ",
"m n M R &.H B N F F v.&.j q + 0 j B F >.R >.k.j X 5 i M J N H B J ' H B B N B +.&.k.v.s f * X 0 d c M M I *.>.>.I x x < . 1 w a "
};
