/* XPM */
static char *d8d250e5dfe1435adc6700be21b3f612MnNgdmPcnoSC17GS[] = {
/* columns rows colors chars-per-pixel */
"64 64 176 2 ",
"   c #2E180A",
".  c #311D05",
"X  c #341D0B",
"o  c #391E09",
"O  c #371F13",
"+  c #3C230E",
"@  c #362413",
"#  c #3C2613",
"$  c #3E2915",
"%  c #382618",
"&  c #3D2B1A",
"*  c #41290F",
"=  c #412712",
"-  c #442B15",
";  c #482D15",
":  c #442D1A",
">  c #4A2E1A",
",  c #463117",
"<  c #4C3217",
"1  c #46321C",
"2  c #4C321D",
"3  c #4F3A1F",
"4  c #51351D",
"5  c #53391E",
"6  c #452D23",
"7  c #473523",
"8  c #4C3522",
"9  c #4D3924",
"0  c #4E3C29",
"q  c #523623",
"w  c #543A25",
"e  c #593C26",
"r  c #543C29",
"t  c #5A3E2A",
"y  c #543C30",
"u  c #603F2C",
"i  c #554025",
"p  c #5C4126",
"a  c #56412C",
"s  c #5C422D",
"d  c #5B492D",
"f  c #564333",
"g  c #5D4432",
"h  c #5E4A33",
"j  c #5F4D39",
"k  c #634126",
"l  c #61442E",
"z  c #69472D",
"x  c #63492E",
"c  c #694A2E",
"v  c #624631",
"b  c #6A4731",
"n  c #644A34",
"m  c #6A4C35",
"M  c #654C39",
"N  c #6A4E39",
"B  c #714E35",
"V  c #714E3A",
"C  c #645136",
"Z  c #6D5136",
"A  c #66513B",
"S  c #6C523B",
"D  c #6F5A3F",
"F  c #725137",
"G  c #73543C",
"H  c #79563D",
"J  c #74593E",
"K  c #7A583F",
"L  c #6D5542",
"P  c #6F5943",
"I  c #735641",
"U  c #7A5642",
"Y  c #765A44",
"T  c #745C44",
"R  c #745A43",
"E  c #795940",
"W  c #785841",
"Q  c #785A40",
"!  c #795942",
"~  c #7B5B42",
"^  c #7D5B40",
"/  c #7E5A40",
"(  c #7D5B42",
")  c #7E5A42",
"_  c #7B5D43",
"`  c #7C5C43",
"'  c #785944",
"]  c #7A5B46",
"[  c #7D5A44",
"{  c #7E5A44",
"}  c #785C44",
"|  c #7D5D45",
" . c #7E5E45",
".. c #7D5D46",
"X. c #7D5F47",
"o. c #7F5F46",
"O. c #7B5C44",
"+. c #765E49",
"@. c #7C5B48",
"#. c #7E5B48",
"$. c #7D5C49",
"%. c #7E5F4B",
"&. c #7A5F49",
"*. c #716046",
"=. c #7F6147",
"-. c #7C6046",
";. c #77614A",
":. c #7A6049",
">. c #7C6048",
",. c #7D614B",
"<. c #7F634B",
"1. c #7C624A",
"2. c #7E6851",
"3. c #81573E",
"4. c #815C42",
"5. c #815D45",
"6. c #805E45",
"7. c #815F46",
"8. c #825E46",
"9. c #845E47",
"0. c #825F45",
"q. c #826146",
"w. c #8A6247",
"e. c #816148",
"r. c #80624A",
"t. c #81634B",
"y. c #83634A",
"u. c #876248",
"i. c #85614B",
"p. c #80614C",
"a. c #82634E",
"s. c #83654D",
"d. c #80664F",
"f. c #82664E",
"g. c #84644D",
"h. c #87674E",
"j. c #83644B",
"k. c #89654D",
"l. c #89674E",
"z. c #8A654B",
"x. c #86684E",
"c. c #86684D",
"v. c #8A694E",
"b. c #826651",
"n. c #836853",
"m. c #866A55",
"M. c #846A53",
"N. c #886851",
"B. c #896B53",
"V. c #8A6C52",
"C. c #8B6C53",
"Z. c #846F5A",
"A. c #8D6F59",
"S. c #906D57",
"D. c #926E53",
"F. c #8E7056",
"G. c #8C7156",
"H. c #867259",
"J. c #8E725A",
"K. c #8D725B",
"L. c #937055",
"P. c #907059",
"I. c #93755B",
"U. c #93735A",
"Y. c #99775C",
"T. c #90785E",
"R. c #9C795E",
"E. c #8F7962",
"W. c #937761",
"Q. c #957A64",
"!. c #9C7B62",
"~. c #9A7F69",
"^. c #9B816A",
"/. c #A38166",
"(. c #A18369",
"). c #AA8C72",
/* pixels */
"n n x x x x c c b l G < e p m a.H 4.F F ^ l < m S d.W m N N #.G Q Q Q Q X.X.] G e m M 2 v n M g v v l l l v v v s v v l v m m m ",
"n n n x x x c m F x S 4 q x m a.8.u.^ ^ X.b w x } K.a.W G N U G G ` X.J J W G m e n v 8 s n v g v l l l l v v v t l v l l v m n ",
"n n n n n b m m Z Z G t - s n m.u.9.8.8.8.G z p Y m.<.] #.W G m Q e.e.Q X.d.] m t n t q r M v v v l l l l l v v s l l l v v m b ",
"n n n n b m m Z m J <.A o q r n.S.l.l.l.e.=.R x v m n S %.#.V z g.e.X.X.d.e.S e v m r r q M v v v l l l l l v v l l l v v m m m ",
"m m n b b m m F Z Q <.I o 2 8 L N.^ { { F J G p w e t s N N l v P.g.c.F.N.G l t N N t t 8 v g v g s x x l l l l v s s v v m m m ",
"m m b b m m F F _ R :.I + w : r N l z b l b S x w t x t q 4 q G e.X.V.I.e.l p W N m g t 2 e g v v v v v v v v l v s t s v m m m ",
"m m m m m F G G X.R d.T $ 8 & 8 v l v m m N R Y e e n s w 2 4 W b m J _ n 4 e I N v m t 8 2 v v v v v v v v v l v t t s m m n m ",
"m m m m Z F G J R R K.;.# & & 9 v l v m v x m G q 2 s v n x w J R J J G z e p S N l N t q 2 M M v v v n n v v v v s t v m m m m ",
"S n m S m G Q K } K.<.d 8 % @ r t s v v v m N S s - s s s n w } G G G J S t t G N v g t r 2 > S N m m v v m m s n m x s N N n m ",
"} G S F Z G _ J <.I q - 7 & @ 7 r p s s s v m S m < e s n n s J I J J J S t e S S m N n g w > a M v m N m n m m N m t e s n m S ",
"} } <.C.C.G.B.:.n t 2 9 r & % f r r t t t s n N n < ; w s a s D R J J J m t q n N s g t q q 2 2 T S I &.I n v A m v e q r s v N ",
"5 q s n m Z n w + - > q 6   X r r e e r r t v m m t < q q 1 h T I J G G S p w x S s M v w t r 2 q e e e q - - 2 = - + + - - = - ",
"3 < , ; - < 4 ; w 2 : : : % % 6 r w w r r t v n S S C n q , d P G J G G G n s n A n I M r r 8 # # 2 > = ; 2 2 e e s s s m v t t ",
"A C C n x Z G Z G N n g g y 7 % 9 9 q q r t g v n S T S d a d A G J J J R S n m M s n t 8 w 8 2 t M s q s N N S n N n m A N n n ",
"d h A A Z J -.J A S Y I M r 6 O 7 8 9 q r t s s t s A h n *.C h G J G S I S v s A n n s n m a n g m w > v m s n n N m n M m n N ",
"d h C d p m J G I N S L v r 8 : 8 2 8 8 r t t t n w v q n H.A a S I S A S Z p w p s m S &.L q q N m q q S S n S n S N m N m m A ",
"s i A A 4 x =.m } m I I n 9 n : # 1 9 w t w e p s m 2 s &.2.+.w 9 S A d n q ; n } S R S G S N > I s + 2 m v n m m m m n n n n n ",
"A s Z Z 5 p _ } x J } n A n A 1 1 0 w 8 2 > > w > e ; q v n v 2 g j h 2 q s n K.=.Z J m S S I t 2 s t n A m S G m m m m n n n n ",
"n n S m 5 4 e e s =.:.m S g r # . + $ = ; < 2 t m R I &.:.A m g w 9 L S M A p :.X.m G m S S R s - N I S S m S m m m m n n v n n ",
"s I G t 5 p e ; - 4 w s s $ 1 2 2 a s n R } } a.A.W.Q.~.W.R v v h 1 P T A S t S _ m J S G S I t s Y S N N m N p m m n v v v n n ",
"n I n 4 l _ =.J J l Z J s - S 1.2.n.<.<.B.M.<.X.P.A.A.I.K.G t p M $ A S N T x S =.m G S I G I t S R m n N N N v n n n v n v n n ",
"S n w p J V.I.!.(.V.G.-.t 9 Z.E.Q.T.M.1.d.<.Q Q g.Q Q X.e.R x N a $ M P Y :.n x N.Z F m I I Y s S } S S S n m m v v v v v n n m ",
"v w t F c.A.N.V.F Z m q - $ L ;.Z Z m l x z l b G m F F J F l S h 0 h A N S m n A.Z m m I G I t N <.Y I S x v n v v v v v n m m ",
"s p b R g.P.A.X.b G m w r - r A x Z S Z Z m b F F F 8.^ K F p m r a h A A A n x V.Z m m R G m ; m <.R S S m m v x x g v v n m m ",
"> N J e.g.g.N.F Z G m n g - - S Z m m Z J Z b B H B G F Q G e G 9 9 n S M s p G _ m F R S G S 2 G R R F m m m v n s s n m v n S ",
"l W Q e.l.N.N.F Z G m x n < : h A S Z Z G m b B B b F F K F e S 9 9 M S N n n T G b S J S R G q } } R m b z x p s v s s g M n r ",
"N ] J ^ l.C.l.m Z J m n n w 1 w S J S S S m b m m b V G Q G z G 9 0 M A N n m } m b S S m R I w <.X.J m b n v x t s a t g M g 9 ",
"G W G H u.C.u.m m G m x m d 8 1 A I J A A m n m m b m F J S m I 8 9 M A M n n I b m F m m I S q a.q.Q F m m n v s e r g g r t g ",
"G W ^ ^ u.C.8.m m F m x n h 9 - n P P A N m m m m v v N m n m A 1 9 M A M n x Z z m S m m S m q u.q.Q J F m v s v s s s r 9 f L ",
"V G { ^ 8.l.F z m m m n n h r 1 a A D A A N m n m n v N v s m m 1 9 A A N A x b z m m m N S n t Q G F F F m n v s m n w 2 r n M ",
"V m ^ U 8.l.F z m b n n s d a 8 1 h S A N A m m m m m S v r n a : 9 M A M A n m b m m S S m s t ` G F F F S m m s s r 2 9 g M M ",
"V m ^ ^ u.S.H B m x n n a a a w $ d S A A S N m n m n S s 9 g 9 - 8 n n n S n m S F S F S v e t A.u.Q R G m n v s 2 - 8 g n n m ",
"b V { H 8.C.4.F m b n v s a a a - q A S A S n A M A A g 8 - # # # - r s S m N m G N N G S n s e } C.} } I I v r w = t w v n S m ",
"W m J X.C.L.H c b b v x g a a a - = q d S T n d 1 1 $ + # : 1 : r < < < v v m l m G W G v 4 < 2 t m n I I I r 2 - # s m n m S m ",
"G m J 8.q.G k l m b v x g s t r 9 2 w a d a 1 2 h n n M S T +.P A s s e l p V W V m l t t w s p x l 4 w 2 2 # : w q s m p N m F ",
"F b G Q K F z F m m n n v g a r 2 - 9 w a a a A T b.K.Q.A.b.m.W.<.T T m m e m G u e 4 w x S I T } } Y } v q + 2 M g s v x Y m S ",
"Q m m J C.R.v.^ F m m m m v a r 8 $ 7 a A P S &.I I <.m.%.m ] Q.K.:.I n m e t e > t G } &.<.n.B.C.K.W.K.A w : S n n v A S b.F F ",
"G G Q ` S./.C.H G Z m n M n f r 8 1 a h S S n S R G ] C.N.K K N.M.T G n n w l m b.A.Q.~.^.^.^.~.M.N.A.<.t 2 : +.M L S N N } S Q ",
"m J e.X.u.C.^ B J Z m n M n a r @ % r f g A M I R R e.L.U.l.^ H } I Y m x 2 v } &.Y G S I &.T G } X.C.d.m s : L T T I t m S m R ",
"R F J J u.L.4.B G Z m n M n a 9 7 & 7 7 g P N m G X.u.u.u.z.9.H g.I S x x < e s n S G N m N S G e.R } S s m w +.S N N e I Y S m ",
"J F Q F ` D.K m J b n n n v a 8 : @ 0 8 M S N A W Q ` u.z.w.3.F Q I S m v 2 S I I G S N N N S S J J K.S t m r L S N n n N S S m ",
"F S ` H u.U.u.G F b m n v g f 9 : & f 0 M S S I G G K 8.z.v.w.9.Q I S m x 4 S S S S S S A S S G Q e.K.I n v w S M M m m N S S m ",
"G G X.Q q.L.u.B F b m m s a f r $ @ 7 7 f n m N m m G ^ z.D.D.D.X.Y G m s w A A S S S S S S G W Q M.<.N m e 8 M S N N N S S S S ",
"G J q.8.u.L.v.m m b m m g a t 8 : $ $ 1 a n n n n m J ^ u.z.L.R.%.] W m p p A A S S G S G G W W R g.n p v 2 e I S S S S S S S S ",
"F J q.u.u.Y.R.K m x v m v a w - : & $ 1 8 a s x n G X.q.8.u.L.!.e.%.] N p n A A S S S S S G W W X.d.t t m 2 r T N S S S S S F F ",
"G R X.u.q.U./.K m z v m v a 8 # $ 8 1 9 : 1 q s n J g.v.u.u.L.!.e.%.] N t A n n A A S S S G J W e.Q e s n > 2 n n m M S S S G G ",
"J Q X.e.K D./.H b l v n s r 8 # a C d A s w w w t m -.c.c.c.C.U.e.X.] m e S n n A A N N N S W Q g.m q s n > 2 v n M A S S S G G ",
"G R } t._ P.).<.z s v v t w 2 - M P d P n n w - < p S <.d.c.N.V.%.] ] m w G n n n n m n m S W ] C.x 2 s n q w L S S I I G S F F ",
"I R -.n.K.n.A w w 2 r s 2 - t I m m N m m n s r 8 + q A <.C.d.B.<.Y S v s m m s p m p p J J G <.M.1 w a A - a T A S I I S S S S ",
"J <.M.;.h w 9 0 1 9 w : : x G m m N N m m n g t r $ 8 8 g I n.^.&.&.I s q s m t G G m b J G J d.S & 0 a g # 2 S S S S S S S S S ",
"x m n w 2 1 8 9 : & - < e m J m N G N N M n g a 2 9 M 9 8 8 A n.I M s 8 = 2 v m R I G J R Q e.C.h 8 a h 9 1 i ;.T I I I R R I G ",
"; * + + : 8 1 $ : # 2 s m m S S G G S N M n g t - t P a t < q w g : : e 2 = t <.Y I I Y Y d.b.:.9 8 a h & 1 9 S A S S A n w < ; ",
"w i s w w w r 9 : r m m x m G F W J G N M M g r 8 a a 8 v p t < 8 # 8 M g : e T Y +.Y I +.m.&.a 1 9 g h : 8 - 9 s s w 2 ; < w x ",
"S G L A M M A A t t n m t t S X.] Q W S N M f q : n a w p s x v a r a g 8 : q a M T T I &.b.N 2 a a a a # 8 - 2 ; r S } T S S S ",
"n n s a g M A M g 9 w v s p S e.] Q W S N v r 2 : T M S x x l G S M g r : : 8 8 r M L L +.S w 2 w 1 1 - + 9 w a <.:.I m x n A R ",
"m A N n g g n n a t r q l <.M.J U W G N m s q - a ,.t S m R b S S g g M a 8 : : 8 M L P T w + : $ # 8 r a S S S n n S G G S A n ",
"S n n s g v h M v r 2 t s v ] X.X.J J m m s : : I S N N N m m m m m n n g f r 9 9 L ,.a - o 8 # w a n S S M n s g n S S G I I S ",
"Z m n v g g g g M r 8 s l m e.e.X.Q R m n t : 2 L N N N F S m m A M g g g g f a 9 t 9 - - 8 M f h n M M n n v g g n A A G I I S ",
"m m n n g g g v M r q s e l e.{ =.Q R m x w ; q S n m N F m B m S n v v n n v s = e g T P A M f a s g g v v v m v m m n S R I S ",
"m m n n v g v v v 8 8 s q t ] J _ J G n s 4 = q n n v m m m b m N M N N S N s e 8 g a +.L h r w 8 e s v m m n v v v v n A I I S ",
"n m m n m n M M q : > t w t { { J G G n s 2 = w N m n m m B B B m m N G I S v t N n - t n n w w t g m N N m s s v v s x m G I S ",
"n n n m M M M n q q 8 t e t G { K G G m s q - w S N m N F F F G S S S F J G S m v N q t m n a a v v m v v g g g v v s x m S S S ",
"b n v n M M v g g M e e u e b { K F G S n w > t I S N S G J H K J G G F F G J G e G v < e w s n g g g s t g v n v v n x n n A A ",
"m z x v M M g t v L r q u e b e.J Z G S m s > t Y S N S G G H K K Q Q Q J G J R q S m 2 N m m t v v v v v v v v s n n v v m n n "
};
