/* XPM */
static char *_0f3f78756fb42fa9065884c6c00c1b9HmbE6QxkNx8fLnsR[] = {
/* columns rows colors chars-per-pixel */
"50 50 179 2 ",
"   c #3D220C",
".  c #432712",
"X  c #452B15",
"o  c #4A2E1A",
"O  c #4A3016",
"+  c #463019",
"@  c #4D331C",
"#  c #51341E",
"$  c #4D3520",
"%  c #4E3922",
"&  c #523621",
"*  c #593622",
"=  c #543A24",
"-  c #593C26",
";  c #553E29",
":  c #5A3E29",
">  c #623E2E",
",  c #5A4127",
"<  c #564029",
"1  c #5C432C",
"2  c #5F4829",
"3  c #5C4431",
"4  c #5E4932",
"5  c #61432E",
"6  c #63492D",
"7  c #6A482D",
"8  c #624631",
"9  c #684736",
"0  c #654B34",
"q  c #6A4B35",
"w  c #664D39",
"e  c #6A4E39",
"r  c #6B5135",
"t  c #66503A",
"y  c #6C533C",
"u  c #6F5839",
"i  c #71543D",
"p  c #735A3D",
"a  c #79593E",
"s  c #6E5541",
"d  c #6E5A42",
"f  c #735641",
"g  c #745A44",
"h  c #795C45",
"j  c #765D49",
"k  c #7B5E49",
"l  c #7A6145",
"z  c #766149",
"x  c #7C634C",
"c  c #7D6550",
"v  c #7E6951",
"b  c #836247",
"n  c #82644D",
"m  c #89664A",
"M  c #836A4D",
"N  c #8A694E",
"B  c #826751",
"V  c #846A54",
"C  c #896C55",
"Z  c #856D59",
"A  c #8A6E59",
"S  c #916D53",
"D  c #877051",
"F  c #8B7256",
"G  c #87715A",
"H  c #8B735C",
"J  c #947257",
"K  c #91745D",
"L  c #937B5D",
"P  c #997F5E",
"I  c #8E7561",
"U  c #8F7962",
"Y  c #927661",
"T  c #947B64",
"R  c #997C65",
"E  c #957D69",
"W  c #9A7F69",
"Q  c #967F71",
"!  c #9A805F",
"~  c #9B8264",
"^  c #96816A",
"/  c #9C836C",
"(  c #9D8571",
")  c #9F8A72",
"_  c #A08567",
"`  c #A1856C",
"'  c #A1886D",
"]  c #A28771",
"[  c #A48B74",
"{  c #A88C76",
"}  c #A58E7A",
"|  c #AA8F79",
" . c #A59177",
".. c #AB9176",
"X. c #A6917A",
"o. c #AF957E",
"O. c #AC967E",
"+. c #AF977F",
"@. c #AC937C",
"#. c #B1927D",
"$. c #B0967F",
"%. c #B1957D",
"&. c #B0987C",
"*. c #B3997D",
"=. c #AD9582",
"-. c #AF9981",
";. c #AE9982",
":. c #AF998C",
">. c #B19780",
",. c #B19681",
"<. c #B09880",
"1. c #B39981",
"2. c #B39B81",
"3. c #B39982",
"4. c #B49A83",
"5. c #B59D81",
"6. c #B59D83",
"7. c #B69C83",
"8. c #B69E82",
"9. c #B59B84",
"0. c #B29C84",
"q. c #B79F85",
"w. c #B49E86",
"e. c #B69E86",
"r. c #B39B84",
"t. c #B89E87",
"y. c #B89E84",
"u. c #B59D89",
"i. c #B89F89",
"p. c #B9A185",
"a. c #BBA387",
"s. c #BBA186",
"d. c #B6A18A",
"f. c #B8A088",
"g. c #BAA089",
"h. c #BBA389",
"j. c #BBA38B",
"k. c #BDA18B",
"l. c #BDA589",
"z. c #BCA48A",
"x. c #BCA48C",
"c. c #BDA58D",
"v. c #BFA78D",
"b. c #BBA38D",
"n. c #B7A193",
"m. c #BCA592",
"M. c #BDA992",
"N. c #BDA799",
"B. c #BFA99B",
"V. c #C1A58F",
"C. c #C0A68F",
"Z. c #C1A78C",
"A. c #C1A98D",
"S. c #C0A88E",
"D. c #C1A98F",
"F. c #C2AA8E",
"G. c #C3AB8F",
"H. c #C0A88E",
"J. c #C0A793",
"K. c #C3A992",
"L. c #C1AB93",
"P. c #C2AA92",
"I. c #C4AC90",
"U. c #C2AC94",
"Y. c #C6AE94",
"T. c #C5AF97",
"R. c #C6AE96",
"E. c #C3AC95",
"W. c #C3AD9A",
"Q. c #C6B098",
"!. c #C5B199",
"~. c #C9B199",
"^. c #CAB49C",
"/. c #CAB39C",
"(. c #C5AFA2",
"). c #CBB5A0",
"_. c #CEB8A1",
"`. c #D2B9A5",
"'. c #D8BFAB",
/* pixels */
"~ L L D p 2 r x r l M l u u l M k h i q k K B 9 i e e i q : 5 q A Y Y F A H B y & 1 - # ; ; @ @ = w ",
"L L T L M u p M L M l p M F D l l k h i i f i q q e i i q q k Y | H V K H j g V i X   1 0 @ @ 1 R ' ",
"M V L ~ F x x D u r p F o.F.6.' M g e 8 8 0 q e h e 5 e n W #.k.4.@.^ F V V x j g 1 = & X : Y 6./ / ",
"V V F L V g p l u M / &.l.F.p.&.| ] H g e y y y e w y A | C.C.h.O.4.{ Y H T F g y . X 5 g / 2.T T L ",
"[ ' / T M u r p T  .p.6.o.o.p.F.v.~.C.R g y e 8 8 V @.P.P.q.@.[ @.W R { O.^ Y R V # 0 ] $.| [ L ' ~ ",
"F.p.&.[ L M D ~ ' o.6.6.6.l.I.E.h.v.h.o.@.] F y ] q.E.E.v.2.{ ] [ / / @.r.2.@.[ j Z o.C.{ / o.2.~ L ",
"h.2.@.' L H / q.q.l.F.F.F.v.6.@.U.0.0.E.^.q./ U Q.P.q.o.-.q.-.{ ` ,.r.@.@.2.R g O j R R ` y.@.V ~ P ",
" .' R F l g D [ l.F.l.q.6.h.v.v.0.2.M.U.T ; 1 H H [ 0.0.o.@.X.] o.{ @.h.$.V -   ; i j g x K ] 4._ ! ",
"@.F g y y V F V @.o.h.P.h.2.2.v.Q.h.] g 1 4 1 x g g V ^ @.0.-.{ o.b.h.R e @ @ : ; y g y w 8 g R ' ~ ",
"V g y y g Z R Y x Y X.2.h.E.E.v.{ v 0 < s x t y y y s z G / @.q.r.] x 1 & ; 1 : @ ; 1 y x l y i m N ",
"w w s g s V T Y I Y Z V / i.,.Y y w g y y y y R x x u w w g F / B y = O : w 8 & O 1 1 8 y w 1 8 u a ",
"y y g g y j V x ] / H c V H c w g y g g g y y R H F M g e w y y & : 1 1 8 8 1 & O 1 1 ; - & - 8 5 9 ",
"g g g y w j Z x x H ( [ Y x y y x i g f y 5 5 H H A V V M j y 0 1 0 y 8 ; & - ; X & & & 8 w 1 : - & ",
"y y y 0 w Z W H x x V R / H x g f i j y 5 : 5 Y K V B V A A l i 1 8 8 1 1 1 : & @ 8 8 : 1 1 1 8 - # ",
"s s y 0 e H [ ^ [ I x x I T c e M y 9 1 f n i k K C n n C C n f = : 1 8 e e 1 @ - g l w : = 1 y 8 > ",
"j x j y w Z ( E ( =.O.T B c j w 8 g C i 9 8 q A B l k x B V n g 8 w 0 1 1 1 = @ # y g g x g 1 @ 9 e ",
"f e 3 0 j H T I ^ ^ T ] ,.( x y x x j y w g R -.I G V j j U ^ V 1 ; 1 0 1 % 1 s  .{ H y y V V y 5 * ",
"3 w j Z ^ O.,.=.E @.=.} [ I x x g 0 4 z / d.d.-.M.^ G U H v G T 1 y 4 X + s / @.-.X.[ / G g s x h i ",
"f Z ( =.w.g.m.g.0.[ V V [ } Z w w g G [ c.Q.U.c.-.M.c.^ V T T g ; @ ; s T o.d.j.@.2.-.{ { { R x j h ",
"( @.w.w.w.w.g.g.^.g.( E E V s y x / c.Q.M.d.c.U.d.0.M.c.) H H G 1 1 x o.^.U.O. .X.2.o.] -.U.2.F b k ",
"=.w.w.r.w.m.J.m.m.m.m.E.0.H B ( 0.d.M.T.T.U.M.c.Q.0.0.c.q.@.[ T x o.^.h.{ o.q.2.2.@.@.q.2.) / o.{ W ",
"=.0.w.g.m.E.J.g.@.w.T.`.E./ W b.^.U.M.M.P.P.c.d.-.d.d.-.d.^.X.4 F o.~.P.r.r.h.h.h.2.@.o.o.@.] / i 5 ",
"@.0.g.m.m.m.g.0.,.`.'.w.V w g ( X.0.m.c.q.-.0.d.d.] X.M.-.Z t ; x x F O.E.K.q.$.r.r.@./ | 2.Y w : # ",
"[ =.w.w.w.g.g.w./.E.T 0 0 j x j x H [ 0.w.0.0.0.q.T.~./ 0 ; 1 1 g x i 0 B $.v.O.$.{ @.2.] g & X = * ",
"V ^ [ } g.T.W.T.E j 0 y y 8 s H x j y F O.i.E.i.~.^ y 8 w w 8 1 f M B f 8 y A ` ,.k.O.x - @ : 5 1 : ",
"^ ( E ^ w.i.( Z y y s j j s s j Z Y Z V j x { b.V s 8 8 w w 8 1 W Y A l j l j i T A i : = 1 5 1 q 8 ",
"H E T Y ^ I x f s j j g g x Z I f B V H V f f 0 1 0 e e e w 8 1 H T W T A M g y g 1 O # 1 e 0 8 - - ",
"V I I Z V g y j j x j s y j I ] W Y g x A V B 0 0 y f e e y 0 : y B R R K A B M 8 - = 8 e 8 5 e e e ",
"E T Z Z A j 0 e w w s j s w g A W / V M j j A x 8 0 0 8 e f e - i h n C Y R A n i 5 1 q q : - 8 8 3 ",
"Z H Y E T j 0 s y e s x j y g H M W / [ / A x 8 8 8 8 e y i 8 & e h l n B A K K K y = : 9 9 5 8 0 w ",
"g B I ( E j y c c x x j g x H ( ` [ R ] O.| / g e e i g f 0 8 8 b C C n k n K R K i - - q e 9 1 & ; ",
"I x j G ^ Z y s s c c s s Z E T A K B H ` [ / g 8 e f g e 1 e B O.W B j B A B h h q : 1 9 9 : = 0 y ",
"g G V z z t 1 t s w 3 s Q W.(.;.[ J F M x T / l 1 s s ; $ d [ m.@.q.@.F g x A A x : o : 1 # : j ' { ",
"H H v x V y $ % ; 3 v :.(.n.:.m.I.&._ M r g M y y = @ d @.B.m.;.d.@.@.-.( x g V y e 5 - - e A [ ~ ' ",
" ./ H v x 4 % 4 j E n.W.N.n.n.m.y.*.*...R F l = + 0 T d.M.;.:.b.0.M.0.( { q.^ e e @   & B | ,.[ ~ ~ ",
") [  .) V t z ( d.W.B.:.=.N.B.u.y.&...&.6.4.^ x H 0._.Q.m.M.M.w.U.-.) X.2.=.[ ^ V g x ] #.` R / ' ~ ",
"T ) 0.0.Y c ^ m.).w.;.m.W.u.=.u. .$.4.p.C.4.R x P.T.v.@.-.U.Q.d.-.=.-.=.{ ^ / [ j f V { #.W Y ` ` ~ ",
"-.) E G y g U ) :.:.u.i.u.} [ [ / y.C.p. .V 8 1 x V ^ -.w.-.-.d.) 0.0./ W ] A 1 X O & 8 C ] | ] R L ",
"X.G y ; X 4 v v I @.:.( E [ @.( h.p.R j y , = w 1 1 g / v.M.2.{ 0.^ I / R f & @ X 0 j i 9 i A W K L ",
"0 1 1 ; $ s G x c c H ) [ ) X.w.$./ p 1 r q : 5 1 w e 8 g R @. .H X.@.v & X & 1 5 : 9 g f 9 5 q W ' ",
"1 1 y 0 & g A e g V F Z I { ,.{ f e y 0 y e 1 j 6 8 e u i i l A 2.G 0 @ . @ 1 1 = 1 y g h i q q q q ",
"8 & 1 ; @ s Y V g g y y V T x 1 w 8 y y i e : y ' V y 9 y g j j y ; @ % @ ; 1 : - 0 g x h i i f 9 9 ",
"1 @ & @ X 0 F F V V l g j l e O 8 8 y e e 1 o 5 j C K C i 5 q l & + % 3 1 1 : & X 1 f j f e e i k k ",
"@ o - : & 8 x A V A M i r r 2 @ 8 1 w 8 8 : O 8 e i b J J m i q w < 1 t 3 : ; & X 1 g j f q 9 5 5 5 ",
"o $ 1 5 : 1 i l H V h p l l 6 O 1 1 e 0 0 8 = i m j h m J J N b e ; ; 4 1 & ; - & 0 j M k h e 5 q q ",
": 1 : = & : 1 5 l M A F F M r = 1 3 e 0 8 : o 0 M m m N b b S R w $ % 4 1 & & & . : y g k n k i 5 5 ",
"1 8 = @ 8 h y : : r l M M a 6 = 8 3 8 ; ; ; - k R b i a N S m h g ; % 1 1 & @ @ & 0 f f i h k h e e ",
"$ - @ : H #./ j 8 1 2 i M C r # 1 & & o - e M 4.` R C h q 7 i b g & + ; - $ & - A W W V f i f f h h ",
"X - f T | O.O.4.A g 1 ; 0 y 8 @ $ X $ t V ( o.{ @.&.o.' K b i 9 , @ ; @ @ 1 j ] ] W / / K C h 5 i g ",
"8 j R | O.| | O.,./ B y 0 8 & . $ & y U [ 0.0.)  .2.p.o.' K m h 6 + + % g ^ ] ,.[ / ` ] W R A f 9 q "
};
