/* XPM */
static char *e41ebf4404fd4512dade3ed9b6baa8619zDfHr4pUmuRpBKd[] = {
/* columns rows colors chars-per-pixel */
"50 50 211 2 ",
"   c #1E1916",
".  c #241E1A",
"X  c #27221E",
"o  c #28231E",
"O  c #2C2622",
"+  c #2E2A25",
"@  c #2E2C28",
"#  c #322622",
"$  c #332A25",
"%  c #332E29",
"&  c #392C27",
"*  c #3E322B",
"=  c #3A322B",
"-  c #393631",
";  c #3D3B36",
":  c #3E3D38",
">  c #373531",
",  c #4D3E2E",
"<  c #46382E",
"1  c #433B35",
"2  c #4B3C35",
"3  c #403E39",
"4  c #4F3F38",
"5  c #54422C",
"6  c #5B472E",
"7  c #5C482F",
"8  c #45423D",
"9  c #4C423B",
"0  c #4E4132",
"q  c #5B4932",
"w  c #51423A",
"e  c #574939",
"r  c #5D503B",
"t  c #4F402F",
"y  c #64553E",
"u  c #66583D",
"i  c #765E3F",
"p  c #7A623E",
"a  c #786D3F",
"s  c #7D743D",
"d  c #474540",
"f  c #4D4944",
"g  c #4B4943",
"h  c #544B43",
"j  c #514F4A",
"k  c #594B42",
"l  c #5D5544",
"z  c #55524C",
"x  c #59554E",
"c  c #5D564E",
"v  c #5C554C",
"b  c #5E594E",
"n  c #5B5751",
"m  c #5D5951",
"M  c #5E5B55",
"N  c #5F5C56",
"B  c #605643",
"V  c #625845",
"C  c #6C5C42",
"Z  c #62564B",
"A  c #645A4B",
"S  c #695E4B",
"D  c #735D42",
"F  c #635C53",
"G  c #6A5E53",
"H  c #6B614C",
"J  c #6E6245",
"K  c #736344",
"L  c #7C6543",
"P  c #74654C",
"I  c #7C6C4D",
"U  c #78694C",
"Y  c #7F7644",
"T  c #676057",
"R  c #696156",
"E  c #6D6255",
"W  c #666058",
"Q  c #6E6359",
"!  c #716554",
"~  c #756A55",
"^  c #7B6C53",
"/  c #71665A",
"(  c #746A5C",
")  c #7A6E5C",
"_  c #7E7155",
"`  c #7C715C",
"'  c #766B60",
"]  c #796E61",
"[  c #7D7264",
"{  c #7F7666",
"}  c #80773C",
"|  c #847B3A",
" . c #806842",
".. c #816F4C",
"X. c #8A7D47",
"o. c #84734C",
"O. c #8C7B4E",
"+. c #847848",
"@. c #917D4E",
"#. c #816F52",
"$. c #847453",
"%. c #8C7B52",
"&. c #83755B",
"*. c #86795E",
"=. c #8A7B5C",
"-. c #867B54",
";. c #917D50",
":. c #827664",
">. c #857963",
",. c #8A7D65",
"<. c #817669",
"1. c #847C6A",
"2. c #8B7E69",
"3. c #867F71",
"4. c #9E992C",
"5. c #9C972F",
"6. c #8A8239",
"7. c #9B9532",
"8. c #9E9A39",
"9. c #A19C2C",
"0. c #A29D34",
"q. c #A29D3B",
"w. c #8D8546",
"e. c #93854B",
"r. c #8F8557",
"t. c #9C8C53",
"y. c #9D8C5B",
"u. c #968656",
"i. c #9D9555",
"p. c #A29B48",
"a. c #A4935C",
"s. c #AC9B5F",
"d. c #A5A142",
"f. c #A7A34B",
"g. c #A6A252",
"h. c #A9A555",
"j. c #A9A55A",
"k. c #B2A35F",
"l. c #8D816A",
"z. c #888168",
"x. c #938461",
"c. c #978B65",
"v. c #9E9065",
"b. c #979167",
"n. c #8C8679",
"m. c #928B7B",
"M. c #98937F",
"N. c #A29565",
"B. c #AB9C63",
"V. c #AD9E6C",
"C. c #A5966D",
"Z. c #AF9F6A",
"A. c #ACA96C",
"S. c #ABA668",
"D. c #B4A364",
"F. c #BBAB65",
"G. c #B4A56B",
"H. c #BBAC6A",
"J. c #B8A763",
"K. c #ACA472",
"L. c #ADAA72",
"P. c #AFAC7D",
"I. c #BBAC73",
"U. c #B3A372",
"Y. c #BBB16E",
"T. c #C3B46D",
"R. c #C5B76C",
"E. c #C2B373",
"W. c #CABC73",
"Q. c #C9BB78",
"!. c #CFC275",
"~. c #CFC37B",
"^. c #D1C57B",
"/. c #D3C87F",
"(. c #D1C477",
"). c #928C82",
"_. c #979286",
"`. c #9A968B",
"'. c #ACA885",
"]. c #B1AF83",
"[. c #B1AF8B",
"{. c #B2B085",
"}. c #B3B18C",
"|. c #B5B39A",
" X c #B5B394",
".X c #B0AD9A",
"XX c #B0AFA5",
"oX c #B6B5A3",
"OX c #B4B3AD",
"+X c #B9B9AC",
"@X c #B8B8A6",
"#X c #B6B5B3",
"$X c #BBBBB6",
"%X c #BBBBBA",
"&X c #B8B7B6",
"*X c #AEACA4",
"=X c #D4CA85",
"-X c #D6CD8C",
";X c #D1C684",
":X c #D7CF94",
">X c #D6CF9B",
",X c #D8CF96",
"<X c #D7D09D",
"1X c #D8D09D",
"2X c #D6CFA4",
"3X c #D6CFAA",
"4X c #D7D0A4",
"5X c #D8D0A4",
"6X c #D7D0AC",
"7X c #D8D0A9",
"8X c #D6D0B0",
/* pixels */
"% * 1 9 9 4 2 2 w h w 9 2 2 1 2 2 2 1 2 2 2 1 2 2 2 4 4 4 4 9 9 4 2 4 4 4 9 1 2 2 1 2 2 2 2 2 1 & * ",
". X O % $ $ & $ $ % $ $ $ $ $ $ $ $ $ $ % $ $ $ % $ $ $ % $ $ % $ % % $ $ % % $ $ $ $ $ $ % % O . . ",
"+ + > ; ; ; 3 ; ; ; ; ; - ; ; ; : ; ; ; ; ; ; ; : ; ; ; - ; ; ; ; ; : ; ; ; ; ; 3 ; ; ; ; ; : > O @ ",
"@ @ - 3 3 3 : : 3 3 3 3 ; ; 3 3 : 3 3 3 3 3 3 3 3 3 : : ; ; ; : : : 3 3 3 : ; 3 : : : 3 : 3 3 - @ @ ",
". X O + O O + % % % % $ + O O + $ % % % % % % % % $ + O O + % % % % % O o O + + + $ % % % % % O . . ",
"@ @ - ; - ; 8 8 8 8 d 8 ; - ; : 3 8 8 8 8 d d g d 8 3 1 1 3 8 9 8 d 8 ; ; ; ; ; 3 3 8 d 8 8 8 ; @ @ ",
"; : g z f j n M N F M n j g f z z v z m M N M F N M z z z v m M M M v j j j z z z n M F M M N h ; 3 ",
"1 8 j v z c M F T R G F c z z c c m c Z F W R Q R F c v c m F R G F m v z z v n m F F F F F W z 3 8 ",
"8 8 z c c c F R E E Q T F c A A G F R Q W Q Q Q R T m m b F R / R T F b c c m F G G G R R R R v 8 9 ",
"8 9 v F F F T Q Q Q ! Q G G G E E E Q / / / / Q Q R G b F G E / Q Q E G G S F F G R Q Q Q Q R v 9 9 ",
"9 h Z R R R / ( ( / ( / ! Q E E E / / ( ' ( ( / / E G G E T Q ( / / Q E H H R E Q / / / / / Q c g h ",
"h h F Q E A Z A A A A A A A A A A A A A A A G Q / Q E G Z Z Z A A A S A V V Z A Z Z Z A A G / F g h ",
"h h G ( A 0 t 6 q q q 7 7 7 7 7 7 7 7 q q w e G ( ( R e , , , 5 7 q 7 7 7 5 5 5 5 5 5 t , r Q G h l ",
"h l E ) A r P $.-.%.%.@.@.e.X.O.O.O.-.$.^ C y E ( ) E e r P ^ o.-.O.@.@.X.X.+.o.o.$.I U y y ~ E k l ",
"h l ! ` E S x.C.K.G.H.F.F.F.F.F.F.G.B.C.c.$.u P ( ) E l J r.v.B.G.F.H.F.F.F.J.J.D.B.N.x.P C ^ / l l ",
"l V ~ [ ! P c.G.E.W.(./././././.~.W.E.G.N.$.D U [ ` ! B P c.S.E.Q./././././.(.!.W.H.V.c.I D &.) v v ",
"l A ~ [ ~ U N.E.~.=X:X:X>X>X>X>X:X-X/.T.B.%.i U &.` ! u U a.H.~.-X:X>X>X>X:X:X-X=XW.H.N...K &.~ v A ",
"l v ~ ` ~ I N.E.=X:X2X2X3X3X3X3X2X>X=XW.B.%.D I &.&.^ C ..B.T.=X>X2X3X3X5X4X4X2X:X/.T.B.O.L $.^ A A ",
"l S ( *.~ o.B.W.=X>X3X3X6X6X3X3X3X2X:XW.D.;.p ..*.*.^ C ..B.W.-X2X3X3X7X7X7X4X4X1X=XW.D.O.L &.) V S ",
"V S ~ >.~ o.s.W.-X4X7X6X6X6X8X6X6X4X:X(.F.e.L #.*.>._ K O.k.!.-X4X7X7X7X7X7X7X7X5X-XW.F.@. .=.) V C ",
"v H _ =.^ o.k.!.-X4X7X6X6X8X8X8X6X4X:X(.F.t. .$.>.,._ K O.D.(.:X5X7X6X7X7X7X7X7X5X:X~.F.@. .=.) A H ",
"A H _ ,.^ o.k.!.:X4X7X6X6X8X8X8X6X4X:X(.F.u. .$.>.*._ K O.F.(.:X5X6X6X6X6X7X5X5X5X:X(.H.@. .=._ A H ",
"S H _ ,.) o.B.!.:X4X6X6X6X6X6X8X3X7X:X(.F.u.p ..>.>.$.K O.F.(.:X4X6X6X6X7X7X7X7X5X:X~.F.@. .&._ A H ",
"A S _ ,.) o.B.W.-X4X6X6X6X6X6X6X6X4X-X(.F.;.i I >.>._ K -.H.(.:X4X6X6X7X7X7X7X7X5X-XW.F.O.L *._ A H ",
"A S _ 2.^ o.B.E.-X4X7X7X7X7X3X7X5X<X=XW.D.;.p ..>.>.^ K $.G.Q.:X5X7X7X7X7X7X7X5X1X-XW.D.O.L =._ A H ",
"A S [ 2.~ I N.Y.=X:X:X<X<X>X>X:X-X=X/.T.V.%.i ^ >.>._ J o.G.Q.-X<X1X1X1X1X1X<X,X:X=XW.V.%.L &.) A S ",
"S G [ 2.( U v.I.Q.~./.;X;X=X/.(.(.W.T.G.N.-.i ^ >.>._ H $.V.I.Q.;X-X=X=X-X-X-X;X/.Q.E.V.$.L *.] A G ",
"A E [ 2.( U c.K.U.H.H.T.T.T.T.F.F.D.B.C.v.$.C ^ >.>.` H _ C.U.I.E.E.R.R.W.W.R.R.I.I.U.C.^ K *.] A G ",
"A S ` 2.~ H *.x.r.u.t.t.t.t.t.t.u.r.=.=.$.U C ~ [ :.) S P =.x.y.a.y.a.a.a.a.a.a.y.c.x.*.U D ` ) A G ",
"c S ] 1.` ! ^ ^ ^ _ _ _ _ ..I $.I ^ ~ ^ ^ ! ! ) :.:.[ ! ! ^ ^ ^ $.$.$.$.$.$.$.$.#.^ ^ ~ ! ! ) ( A S ",
"v A ' <.<.{ :.:.:.:.:.>.:.:.&.>.:.:.:.:.[ [ :.<.<.<.:.:.:.:.<.:.:.2.,.>.>.2.,.>.:.:.[ [ [ [ [ / b A ",
"v Z ' [ <.<.<.1.2.>.>.>.*.:.&.>.>.:.[ :.:.:.>.<.<.<.<.<.<.>.>.>.>.l.l.l.l.l.2.2.1.:.[ ] [ [ <.( c A ",
"v c ( ] ] ] ( ` ) ( ) ( ~ ( ( ( ( ( ( ( ( ( ) ' ( ] ] ] ] ) ) ( ) [ [ [ :.:.:.:.` ( ( ( ( ( [ ( v Z ",
"v c / V B B y B l A V B y y B r B l B l l B V B l B B B B B B B B l B B B B V B y B B B B B V ( v Z ",
"v c Q V L w.M._.n.z.+.6.b._.m.c.| } e.).).M.6.| w.M.m._.w.} O.m.m.`.u.| 6.b._.`.b.| | r.`.` V / v c ",
"z v Q V Y K.$X$X.Xi.7.g.+X#X.Xd.5.8.|.#X$Xj.5.4.].#X&XL.9.7.K.OX&X}.q.5.f.+X&X@Xd.5.8.|.%X1.V / v c ",
"v c Q V [ OX$X+XL.0.0.P.%X$X].9.9.h.$X%X|.q.9.d.@X%X+Xf.9.q.}.$X$XA.4.4.L.$X$X{.9.4.j.$X%X1.V / v c ",
"v c Q B 1.&X#XA.0.0.L.$X%X{.0.9.h.+X%X|.d.9.d.|.%X+Xh.9.0.{.%X$XA.9.0.L.$X%X{.0.9.j.+X%X|.$.A ( z c ",
"v c / V <.OX'.q.9.A.$X$X].0.4.g.+X$XoXd.9.q.|.$X$Xh.9.9.{.$X$XA.9.4.H.$X%X}.0.9.g.+X%XoXd.s V ( v b ",
"c c ( A [ '.p.9.q. X$X#XS.9.9.L.&X$X].9.9.h.#X&X|.0.9.d.oX&X+Xf.4.8.}.$X$XS.4.9.L.&X&X].9.s A ( c b ",
"c Z ( A P p.9.q.[.&X*XA.9.9.A.XXOX{.0.9.h.oXOX|.d.9.d.|.OXXXg.7.8.[.#XOXA.7.7.L.+XXX].0.9.s A ( c Z ",
"c A ( A J s s Y n.3.{ s } s z.1.1.+.} } >.1.1.-.} } -.n.1.*.s a +.n.<.1.s s Y z.3.1.+.} } K V ( Z Z ",
"v F ' A A V V V V B l l V V B B l B V V l B B B V V V B V B V V V V V B B V V l B B B V V V A ( c F ",
"c F ' <.<.<.:.:.:.:.[ [ [ [ ] [ ] [ [ [ [ [ ] [ [ [ [ [ [ [ [ [ [ ] [ [ ] ] ] ] ( ( ( ' ] [ <.( c F ",
"k k F / / / / Q / / / / E G G G Q Q E Q E G E Q / / / / E E E Q / / / E / G G G G G G G G G / F k k ",
"* < 4 w w w w w w w w w w w w w w w w w w w w w w w w w w w w w w w w w 4 4 4 4 4 4 4 w 9 9 w 2 * * ",
". . # $ $ $ # # # # # # # # # $ # $ $ # # # $ $ # # # # # # # $ $ # $ # # # # # # # $ $ $ # $ O . . ",
"# + > ; ; ; ; ; ; ; ; ; ; ; ; ; ; ; ; ; ; ; ; ; ; ; ; ; ; ; ; ; ; ; ; ; ; ; ; ; ; ; ; ; ; ; ; - + + ",
"+ + - 8 : : : : ; ; ; : : : : : : : 3 3 : ; ; : ; ; ; ; : : : : : 1 3 : : : : : : : : : : : : - + + ",
"    . O o o X X X X X X X o o o o X X X o X X X X o o o o X o X X X X X X X o X X X o O O O O X     "
};
